<svg width="90" height="91" viewBox="0 0 90 91" fill="none" xmlns="http://www.w3.org/2000/svg">
<path d="M77.2877 30.5001C80.8097 38.0841 81.5486 46.6661 79.3749 54.7406C77.2012 62.815 72.2536 69.8661 65.4002 74.657C58.5467 79.4478 50.2251 81.6723 41.8953 80.9402C33.5655 80.2082 25.7595 76.5663 19.8467 70.6536C13.934 64.7408 10.2921 56.9348 9.56003 48.605C8.82798 40.2751 11.0525 31.9536 15.8433 25.1001C20.6341 18.2467 27.6853 13.2991 35.7597 11.1254C43.8342 8.95163 52.4162 9.69059 60.0002 13.2126" stroke="black" stroke-width="3" stroke-miterlimit="10"/>
<path d="M61.575 38.9753C62.4063 41.0497 62.8265 43.2657 62.8125 45.5003C62.8125 49.0233 61.7678 52.4672 59.8106 55.3964C57.8533 58.3257 55.0714 60.6088 51.8166 61.9569C48.5617 63.3051 44.9802 63.6579 41.525 62.9706C38.0697 62.2833 34.8958 60.5868 32.4047 58.0957C29.9135 55.6046 28.2171 52.4307 27.5298 48.9754C26.8425 45.5201 27.1952 41.9386 28.5434 38.6838C29.8916 35.429 32.1747 32.647 35.1039 30.6898C38.0332 28.7325 41.477 27.6878 45 27.6878C47.2346 27.6738 49.4507 28.0941 51.525 28.9253" stroke="black" stroke-width="3" stroke-miterlimit="10"/>
<path d="M45 45.5L66.375 24.125V17L73.5 9.875V17H80.625L73.5 24.125H66.375" stroke="black" stroke-width="3" stroke-miterlimit="10"/>
<path d="M45 49.062C46.9675 49.062 48.5625 47.467 48.5625 45.4995C48.5625 43.532 46.9675 41.937 45 41.937C43.0325 41.937 41.4375 43.532 41.4375 45.4995C41.4375 47.467 43.0325 49.062 45 49.062Z" stroke="black" stroke-width="3" stroke-miterlimit="10"/>
</svg>
