<svg width="90" height="90" viewBox="0 0 90 90" fill="none" xmlns="http://www.w3.org/2000/svg">
<path d="M34.1626 66.7497H46.7251C48.1573 66.7497 49.5308 66.1808 50.5435 65.1681C51.5562 64.1554 52.1251 62.7819 52.1251 61.3497C52.1301 60.6392 51.9938 59.9348 51.7242 59.2773C51.4546 58.6199 51.057 58.0227 50.5546 57.5202C50.0522 57.0178 49.4549 56.6202 48.7975 56.3506C48.1401 56.081 47.4356 55.9447 46.7251 55.9497H42.9751C41.5429 55.9497 40.1694 55.3808 39.1567 54.3681C38.144 53.3554 37.5751 51.9819 37.5751 50.5497C37.5598 49.8167 37.6928 49.0881 37.9663 48.4078C38.2398 47.7275 38.6481 47.1096 39.1665 46.5911C39.685 46.0727 40.3029 45.6644 40.9832 45.391C41.6635 45.1175 42.3921 44.9844 43.1251 44.9997H55.7251" stroke="black" stroke-width="3" stroke-miterlimit="10"/>
<path d="M44.925 34.3872V45.1497" stroke="black" stroke-width="3" stroke-miterlimit="10"/>
<path d="M44.925 66.75V77.5125" stroke="black" stroke-width="3" stroke-miterlimit="10"/>
<path d="M84.4875 5.5874H5.36255V84.7124H84.4875V5.5874Z" stroke="black" stroke-width="3" stroke-miterlimit="10"/>
<path d="M84.4876 27.1874H60.975H53.775H5.36255V5.5874H84.4876V27.1874Z" stroke="black" stroke-width="3" stroke-miterlimit="10"/>
<path d="M16.1626 16.3872H23.3626" stroke="black" stroke-width="3" stroke-miterlimit="10"/>
<path d="M30.5625 16.3872H37.725" stroke="black" stroke-width="3" stroke-miterlimit="10"/>
<path d="M44.925 16.3872H52.125" stroke="black" stroke-width="3" stroke-miterlimit="10"/>
</svg>
