<svg width="90" height="90" viewBox="0 0 90 90" fill="none" xmlns="http://www.w3.org/2000/svg">
<path d="M62.8875 5.625H27.1125C23.1567 5.625 19.95 8.83176 19.95 12.7875V77.2125C19.95 81.1682 23.1567 84.375 27.1125 84.375H62.8875C66.8432 84.375 70.05 81.1682 70.05 77.2125V12.7875C70.05 8.83176 66.8432 5.625 62.8875 5.625Z" stroke="black" stroke-width="3" stroke-miterlimit="10"/>
<path d="M34.2749 5.625H55.7624V9.375C55.7624 10.3696 55.3673 11.3234 54.6641 12.0267C53.9608 12.7299 53.007 13.125 52.0124 13.125H37.8374C36.8428 13.125 35.889 12.7299 35.1858 12.0267C34.4825 11.3234 34.0874 10.3696 34.0874 9.375V5.625H34.2749Z" fill="black"/>
<path d="M41.4375 73.6499H48.5625" stroke="black" stroke-width="3" stroke-miterlimit="10"/>
</svg>
