<svg width="90" height="90" viewBox="0 0 90 90" fill="none" xmlns="http://www.w3.org/2000/svg">
<path d="M19.9501 12.7876H70.0501C71.9497 12.7876 73.7715 13.5422 75.1148 14.8854C76.458 16.2287 77.2126 18.0505 77.2126 19.9501V62.8876H12.7876V19.9501C12.7876 18.0505 13.5422 16.2287 14.8854 14.8854C16.2287 13.5422 18.0505 12.7876 19.9501 12.7876Z" stroke="black" stroke-width="3" stroke-miterlimit="10"/>
<path d="M5.625 62.8877H84.375V70.0502C84.375 71.9498 83.6204 73.7716 82.2772 75.1148C80.9339 76.4581 79.1121 77.2127 77.2125 77.2127H12.7875C10.8879 77.2127 9.06608 76.4581 7.72285 75.1148C6.37962 73.7716 5.625 71.9498 5.625 70.0502V62.8877Z" stroke="black" stroke-width="3" stroke-miterlimit="10"/>
<path d="M30.675 44.9998L41.4 34.2748L48.6 41.3998L59.325 30.6748" stroke="black" stroke-width="3" stroke-miterlimit="10" stroke-linecap="square"/>
</svg>
