<svg width="90" height="90" viewBox="0 0 90 90" fill="none" xmlns="http://www.w3.org/2000/svg">
<path d="M84.4126 5.625H5.2876V84.75H84.4126V5.625Z" stroke="black" stroke-width="3" stroke-miterlimit="10"/>
<path d="M84.4126 27.1875H60.9001H53.7001H5.2876V5.625H84.4126V27.1875Z" stroke="black" stroke-width="3" stroke-miterlimit="10"/>
<path d="M16.0876 16.4248H23.2876" stroke="black" stroke-width="3" stroke-miterlimit="10"/>
<path d="M30.4875 16.4248H37.6875" stroke="black" stroke-width="3" stroke-miterlimit="10"/>
<path d="M44.8501 16.4248H52.0501" stroke="black" stroke-width="3" stroke-miterlimit="10"/>
<path d="M45.4874 66.6126C51.4107 66.6126 56.2124 61.8109 56.2124 55.8876C56.2124 49.9643 51.4107 45.1626 45.4874 45.1626C39.5642 45.1626 34.7625 49.9643 34.7625 55.8876C34.7625 61.8109 39.5642 66.6126 45.4874 66.6126Z" stroke="black" stroke-width="3" stroke-miterlimit="10"/>
<path d="M45.4875 45.1625V38" stroke="black" stroke-width="3" stroke-miterlimit="10"/>
<path d="M45.4875 73.7749V66.6499" stroke="black" stroke-width="3" stroke-miterlimit="10"/>
<path d="M36.1875 50.5249L30 46.9624" stroke="black" stroke-width="3" stroke-miterlimit="10"/>
<path d="M60.9751 64.85L54.7876 61.25" stroke="black" stroke-width="3" stroke-miterlimit="10"/>
<path d="M60.9751 46.9624L54.7876 50.5249" stroke="black" stroke-width="3" stroke-miterlimit="10"/>
<path d="M36.1875 61.25L30 64.85" stroke="black" stroke-width="3" stroke-miterlimit="10"/>
</svg>
