<svg width="46" height="45" viewBox="0 0 46 45" fill="none" xmlns="http://www.w3.org/2000/svg">
<path d="M42.7061 2.8125H3.14355V42.375H42.7061V2.8125Z" stroke="black" stroke-width="2" stroke-miterlimit="10"/>
<path d="M42.7061 13.5938H30.9498H27.3498H3.14355V2.8125H42.7061V13.5938Z" stroke="black" stroke-width="2" stroke-miterlimit="10"/>
<path d="M8.54346 8.21252H12.1435" stroke="black" stroke-width="2" stroke-miterlimit="10"/>
<path d="M15.7437 8.21252H19.3437" stroke="black" stroke-width="2" stroke-miterlimit="10"/>
<path d="M22.9248 8.21252H26.5248" stroke="black" stroke-width="2" stroke-miterlimit="10"/>
<path d="M23.2438 33.3063C26.2055 33.3063 28.6063 30.9054 28.6063 27.9438C28.6063 24.9822 26.2055 22.5813 23.2438 22.5813C20.2822 22.5813 17.8813 24.9822 17.8813 27.9438C17.8813 30.9054 20.2822 33.3063 23.2438 33.3063Z" stroke="black" stroke-width="2" stroke-miterlimit="10"/>
<path d="M23.2437 22.5813V19" stroke="black" stroke-width="2" stroke-miterlimit="10"/>
<path d="M23.2437 36.8875V33.325" stroke="black" stroke-width="2" stroke-miterlimit="10"/>
<path d="M18.5938 25.2625L15.5 23.4812" stroke="black" stroke-width="2" stroke-miterlimit="10"/>
<path d="M30.9873 32.425L27.8936 30.625" stroke="black" stroke-width="2" stroke-miterlimit="10"/>
<path d="M30.9873 23.4812L27.8936 25.2625" stroke="black" stroke-width="2" stroke-miterlimit="10"/>
<path d="M18.5938 30.625L15.5 32.425" stroke="black" stroke-width="2" stroke-miterlimit="10"/>
</svg>
