<svg width="46" height="45" viewBox="0 0 46 45" fill="none" xmlns="http://www.w3.org/2000/svg">
<path d="M39.1063 2.8125H3.3125V13.5562H39.1063V2.8125Z" stroke="black" stroke-width="2" stroke-miterlimit="10"/>
<path d="M21.2 24.3H3.3125V13.5563H39.1063V17.1375" stroke="black" stroke-width="2" stroke-miterlimit="10"/>
<path d="M8.6748 8.17505H12.2561" stroke="black" stroke-width="2" stroke-miterlimit="10"/>
<path d="M8.6748 18.9187H12.2561" stroke="black" stroke-width="2" stroke-miterlimit="10"/>
<path d="M15.8379 8.17505H33.7441" stroke="black" stroke-width="2" stroke-miterlimit="10"/>
<path d="M15.8379 18.9187H21.2191" stroke="black" stroke-width="2" stroke-miterlimit="10"/>
<path d="M21.2 35.025H3.3125V24.3H21.2" stroke="black" stroke-width="2" stroke-miterlimit="10"/>
<path d="M8.6748 29.6625H12.2561" stroke="black" stroke-width="2" stroke-miterlimit="10"/>
<path d="M21.2191 29.6625H15.8379" stroke="black" stroke-width="2" stroke-miterlimit="10"/>
<path d="M33.7625 42.15H33.65C31.1187 41.3866 28.8997 39.8302 27.3198 37.7102C25.74 35.5903 24.8829 33.0189 24.875 30.375V23.2875L33.7437 20.7188L42.7812 23.2875V30.3188C42.7762 33.0051 41.8919 35.616 40.2633 37.7524C38.6347 39.8888 36.3515 41.4334 33.7625 42.15Z" stroke="black" stroke-width="2" stroke-miterlimit="10"/>
</svg>
