<svg width="45" height="46" viewBox="0 0 45 46" fill="none" xmlns="http://www.w3.org/2000/svg">
<path d="M35.0816 3.2749H9.90039V15.8562H35.0816V3.2749Z" stroke="black" stroke-width="2" stroke-miterlimit="10"/>
<path d="M35.0816 15.8562H9.90039V28.4375H35.0816V15.8562Z" stroke="black" stroke-width="2" stroke-miterlimit="10"/>
<path d="M35.0816 28.4561H9.90039V41.0373H35.0816V28.4561Z" stroke="black" stroke-width="2" stroke-miterlimit="10"/>
<path d="M35.082 8.6748C36.9883 8.6748 38.8169 9.43079 40.1666 10.777C41.5163 12.1232 42.2771 13.9497 42.282 15.8561C42.2672 17.7558 41.5021 19.5728 40.1534 20.9109C38.8048 22.249 36.9819 22.9999 35.082 22.9998" stroke="black" stroke-width="2" stroke-miterlimit="10"/>
<path d="M35.082 23C36.9916 23 38.8229 23.7586 40.1732 25.1088C41.5235 26.4591 42.282 28.2904 42.282 30.2C42.282 31.1446 42.0957 32.08 41.7336 32.9525C41.3715 33.825 40.8409 34.6175 40.1721 35.2845C39.5032 35.9516 38.7094 36.4802 37.8359 36.84C36.9625 37.1998 36.0267 37.3837 35.082 37.3813" stroke="black" stroke-width="2" stroke-miterlimit="10"/>
<path d="M9.90039 37.4375C8.95664 37.44 8.02171 37.2559 7.14932 36.8959C6.27694 36.5359 5.4843 36.007 4.81696 35.3397C4.14963 34.6723 3.62076 33.8797 3.26074 33.0073C2.90073 32.1349 2.71667 31.2 2.71914 30.2562C2.70923 29.3069 2.88765 28.365 3.2441 27.4851C3.60055 26.6051 4.12795 25.8046 4.79578 25.1298C5.46361 24.455 6.25862 23.9193 7.13481 23.5537C8.01101 23.1882 8.95099 22.9999 9.90039 23" stroke="black" stroke-width="2" stroke-miterlimit="10"/>
<path d="M9.9 22.9998C8.00189 22.9998 6.18097 22.2484 4.8353 20.9097C3.48963 19.5711 2.72866 17.7541 2.71875 15.8561C2.71875 13.9515 3.47534 12.1249 4.82209 10.7781C6.16883 9.4314 7.99541 8.6748 9.9 8.6748" stroke="black" stroke-width="2" stroke-miterlimit="10"/>
<path d="M15.3008 8.6748H18.9008" stroke="black" stroke-width="2" stroke-miterlimit="10"/>
<path d="M15.3008 21.2561H18.9008" stroke="black" stroke-width="2" stroke-miterlimit="10"/>
<path d="M15.3008 33.8374H18.9008" stroke="black" stroke-width="2" stroke-miterlimit="10"/>
<path d="M29.6813 8.6748H24.2812" stroke="black" stroke-width="2" stroke-miterlimit="10"/>
<path d="M29.6813 21.2561H24.2812" stroke="black" stroke-width="2" stroke-miterlimit="10"/>
<path d="M29.6813 33.8374H24.2812" stroke="black" stroke-width="2" stroke-miterlimit="10"/>
</svg>
