<svg width="183" height="113" viewBox="0 0 183 113" fill="none" xmlns="http://www.w3.org/2000/svg">
<rect x="1" y="1" width="181" height="111" rx="4.98947" fill="white"/>
<rect x="1" y="1" width="181" height="111" rx="4.98947" stroke="#999999"/>
<path d="M13 8.5C13 8.99445 12.8534 9.47781 12.5787 9.88893C12.304 10.3001 11.9135 10.6205 11.4567 10.8097C10.9999 10.9989 10.4972 11.0484 10.0123 10.952C9.52734 10.8555 9.08186 10.6174 8.73222 10.2678C8.38259 9.91814 8.1445 9.47268 8.04804 8.98773C7.95158 8.50278 8.00107 8.0001 8.19029 7.54329C8.37951 7.08647 8.69996 6.69603 9.11109 6.42133C9.52221 6.14662 10.0056 6 10.5 6C11.1631 6 11.7989 6.2634 12.2678 6.73224C12.7366 7.20108 13 7.83696 13 8.5V8.5Z" fill="black"/>
<path d="M26 8.5C26 8.99445 25.8534 9.47781 25.5787 9.88893C25.304 10.3001 24.9135 10.6205 24.4567 10.8097C23.9999 10.9989 23.4972 11.0484 23.0123 10.952C22.5273 10.8555 22.0819 10.6174 21.7323 10.2678C21.3826 9.91814 21.1445 9.47268 21.048 8.98773C20.9516 8.50278 21.0011 8.0001 21.1903 7.54329C21.3795 7.08647 21.6999 6.69603 22.1111 6.42133C22.5222 6.14662 23.0056 6 23.5 6C24.1631 6 24.7989 6.2634 25.2678 6.73224C25.7366 7.20108 26 7.83696 26 8.5V8.5Z" fill="black"/>
<path d="M39 8.5C39 8.99445 38.8534 9.47781 38.5787 9.88893C38.304 10.3001 37.9135 10.6205 37.4567 10.8097C36.9999 10.9989 36.4972 11.0484 36.0123 10.952C35.5273 10.8555 35.0819 10.6174 34.7322 10.2678C34.3826 9.91814 34.1445 9.47268 34.048 8.98773C33.9516 8.50278 34.0011 8.0001 34.1903 7.54329C34.3795 7.08647 34.7 6.69603 35.1111 6.42133C35.5222 6.14662 36.0056 6 36.5 6C37.1631 6 37.7989 6.2634 38.2678 6.73224C38.7366 7.20108 39 7.83696 39 8.5Z" fill="black"/>
<line x1="182" y1="16.5" x2="1" y2="16.5" stroke="#999999"/>
</svg>
