<svg id="Capa_1" enable-background="new 0 0 512 512" height="512" viewBox="0 0 512 512" width="512" xmlns="http://www.w3.org/2000/svg" xmlns:xlink="http://www.w3.org/1999/xlink"><linearGradient id="SVGID_1_" gradientUnits="userSpaceOnUse" x1="158.781" x2="471.063" y1="391.504" y2="79.222"><stop offset="0" stop-color="#d2deff" stop-opacity="0"/><stop offset="1" stop-color="#b7c5ff"/></linearGradient><g><g><path d="m442.25 296.29c0-119.538 77.955-144.952 47.512-172.737-18.916-17.265-112.817 2.445-160.124 7.806-15.175 1.72-21.591-9.552-9.401-19.428 30.634-24.818 92.141-28.235 97.725-69.462 7.883-58.204-135.446-59.628-273.337 14.744-116.102 62.62-187.847 196.078-66.525 217.727 68.529 12.228 188.812-102.136 250.354-50.828 63.1 52.608-54.534 120.156-81.441 204.222-40.809 127.498 216.741 95.004 223.629-2.142 2.224-31.366-28.392-98.457-28.392-129.902z" fill="url(#SVGID_1_)"/></g><g><g><g><path d="m461.761 183.547h-18.034v-41.542c0-11.046-8.954-20-20-20h-356.179c-11.046 0-20 8.954-20 20v298.439c0 11.046 8.954 20 20 20h356.18c11.046 0 20-8.954 20-20v-160.444h18.034c5.523 0 10-4.477 10-10v-76.453c-.001-5.523-4.478-10-10.001-10z" fill="#00c" opacity=".1"/><g><g><path d="m443.728 118v298.44c0 11.05-8.95 20-20 20h-356.181c-11.05 0-20-8.95-20-20v-298.44c0-11.04 8.95-20 20-20h356.18c11.051 0 20.001 8.96 20.001 20z" fill="#fff"/><path d="m443.727 160.732v-42.727c0-11.046-8.954-20-20-20h-356.179c-11.046 0-20 8.954-20 20v42.727z" fill="#6583fe"/></g><g fill="#6583fe"><path d="m218.254 256.159h-34.766c-2.761 0-5-2.239-5-5v-34.766c0-2.761 2.239-5 5-5h34.766c2.761 0 5 2.239 5 5v34.766c0 2.761-2.238 5-5 5z"/><path d="m307.787 256.159h-34.766c-2.761 0-5-2.239-5-5v-34.766c0-2.761 2.239-5 5-5h34.766c2.761 0 5 2.239 5 5v34.766c0 2.761-2.239 5-5 5z"/><path d="m173.488 300.925h-34.766c-2.761 0-5-2.239-5-5v-34.766c0-2.761 2.239-5 5-5h34.766c2.761 0 5 2.239 5 5v34.766c0 2.761-2.238 5-5 5z"/><path d="m263.021 300.925h-34.766c-2.761 0-5-2.239-5-5v-34.766c0-2.761 2.239-5 5-5h34.766c2.761 0 5 2.239 5 5v34.766c0 2.761-2.239 5-5 5z"/><path d="m352.553 300.925h-34.766c-2.761 0-5-2.239-5-5v-34.766c0-2.761 2.239-5 5-5h34.766c2.761 0 5 2.239 5 5v34.766c0 2.761-2.239 5-5 5z"/><path d="m128.722 345.691h-34.766c-2.761 0-5-2.239-5-5v-34.766c0-2.761 2.239-5 5-5h34.766c2.761 0 5 2.239 5 5v34.766c0 2.761-2.239 5-5 5z"/><path d="m218.254 345.691h-34.766c-2.761 0-5-2.239-5-5v-34.766c0-2.761 2.239-5 5-5h34.766c2.761 0 5 2.239 5 5v34.766c0 2.761-2.238 5-5 5z"/><path d="m307.787 345.691h-34.766c-2.761 0-5-2.239-5-5v-34.766c0-2.761 2.239-5 5-5h34.766c2.761 0 5 2.239 5 5v34.766c0 2.761-2.239 5-5 5z"/><path d="m397.319 256.159h-34.766c-2.761 0-5-2.239-5-5v-34.766c0-2.761 2.239-5 5-5h34.766c2.761 0 5 2.239 5 5v34.766c0 2.761-2.238 5-5 5z"/><path d="m397.319 345.691h-34.766c-2.761 0-5-2.239-5-5v-34.766c0-2.761 2.239-5 5-5h34.766c2.761 0 5 2.239 5 5v34.766c0 2.761-2.238 5-5 5z"/><path d="m228.254 390.457h34.766c2.761 0 5-2.239 5-5v-34.766c0-2.761-2.239-5-5-5h-34.766c-2.761 0-5 2.239-5 5v34.766c0 2.762 2.239 5 5 5z"/><path d="m138.722 390.457h34.766c2.761 0 5-2.239 5-5v-34.766c0-2.761-2.239-5-5-5h-34.766c-2.761 0-5 2.239-5 5v34.766c0 2.762 2.239 5 5 5z"/></g><g fill="#fff"><path d="m107.402 120.453h-12.242c-5.523 0-10-4.477-10-10v-24.896c0-5.523 4.477-10 10-10h12.242c5.523 0 10 4.477 10 10v24.896c0 5.523-4.477 10-10 10z"/><path d="m179.58 120.453h-12.242c-5.523 0-10-4.477-10-10v-24.896c0-5.523 4.477-10 10-10h12.242c5.523 0 10 4.477 10 10v24.896c0 5.523-4.477 10-10 10z"/><path d="m251.758 120.453h-12.242c-5.523 0-10-4.477-10-10v-24.896c0-5.523 4.477-10 10-10h12.242c5.523 0 10 4.477 10 10v24.896c0 5.523-4.477 10-10 10z"/><path d="m323.936 120.453h-12.242c-5.523 0-10-4.477-10-10v-24.896c0-5.523 4.477-10 10-10h12.242c5.523 0 10 4.477 10 10v24.896c0 5.523-4.477 10-10 10z"/><path d="m396.115 120.453h-12.242c-5.523 0-10-4.477-10-10v-24.896c0-5.523 4.477-10 10-10h12.242c5.523 0 10 4.477 10 10v24.896c0 5.523-4.477 10-10 10z"/></g></g></g><g><g><path d="m461.761 159.547h-76.37c-5.523 0-10 4.477-10 10v76.453c0 5.523 4.477 10 10 10h76.37c5.523 0 10-4.477 10-10v-76.453c0-5.523-4.477-10-10-10z" fill="#fff"/><path d="m461.761 159.547h-76.37c-5.523 0-10 4.477-10 10v18.443h96.37v-18.443c0-5.523-4.477-10-10-10z" fill="#6583fe"/></g><g fill="#00c"><path d="m115.63 199.009c2.761 0 5-2.239 5-5s-2.239-5-5-5h-8.583c-2.761 0-5 2.239-5 5s2.239 5 5 5z"/><path d="m160.396 199.009c2.761 0 5-2.239 5-5s-2.239-5-5-5h-8.583c-2.761 0-5 2.239-5 5s2.239 5 5 5z"/><path d="m205.163 199.009c2.761 0 5-2.239 5-5s-2.239-5-5-5h-8.583c-2.761 0-5 2.239-5 5s2.239 5 5 5z"/><path d="m249.929 199.009c2.761 0 5-2.239 5-5s-2.239-5-5-5h-8.583c-2.761 0-5 2.239-5 5s2.239 5 5 5z"/><path d="m294.695 199.009c2.761 0 5-2.239 5-5s-2.239-5-5-5h-8.583c-2.761 0-5 2.239-5 5s2.239 5 5 5z"/><path d="m339.461 199.009c2.761 0 5-2.239 5-5s-2.239-5-5-5h-8.583c-2.761 0-5 2.239-5 5s2.239 5 5 5z"/><path d="m397.319 394.397h-88.583c-2.761 0-5 2.239-5 5s2.239 5 5 5h88.583c2.761 0 5-2.239 5-5s-2.239-5-5-5z"/><path d="m397.319 376.518h-48.583c-2.761 0-5 2.239-5 5s2.239 5 5 5h48.583c2.761 0 5-2.239 5-5s-2.239-5-5-5z"/><path d="m461.762 154.547h-13.034v-36.542c0-13.785-11.215-25-25-25h-12.612v-7.448c0-8.271-6.729-15-15-15h-12.242c-8.271 0-15 6.729-15 15v7.448h-29.937v-7.448c0-8.271-6.729-15-15-15h-12.241c-8.271 0-15 6.729-15 15v7.448h-29.937v-7.448c0-8.271-6.729-15-15-15h-12.242c-8.271 0-15 6.729-15 15v7.448h-29.937v-7.448c0-8.271-6.729-15-15-15h-12.241c-8.271 0-15 6.729-15 15v7.448h-29.937v-7.448c0-8.271-6.729-15-15-15h-12.242c-8.271 0-15 6.729-15 15v7.448h-12.612c-13.785 0-25 11.215-25 25v298.438c0 13.785 11.215 25 25 25h356.18c13.785 0 25-11.215 25-25v-132.585c0-2.761-2.238-5-5-5s-5 2.239-5 5v132.585c0 8.271-6.729 15-15 15h-356.18c-8.271 0-15-6.729-15-15v-298.438c0-8.271 6.729-15 15-15h12.612v7.448c0 8.271 6.729 15 15 15h12.242c8.271 0 15-6.729 15-15v-7.448h29.937v7.448c0 8.271 6.729 15 15 15h12.241c8.271 0 15-6.729 15-15v-7.448h29.937v7.448c0 8.271 6.729 15 15 15h12.242c8.271 0 15-6.729 15-15v-7.448h29.937v7.448c0 8.271 6.729 15 15 15h12.241c8.271 0 15-6.729 15-15v-7.448h29.937v7.448c0 8.271 6.729 15 15 15h12.242c8.271 0 15-6.729 15-15v-7.448h12.612c8.271 0 15 6.729 15 15v36.542h-12.392c-2.762 0-5 2.239-5 5s2.238 5 5 5h35.426c2.757 0 5 2.243 5 5v76.453c0 2.757-2.243 5-5 5h-76.37c-2.757 0-5-2.243-5-5v-76.453c0-2.757 2.243-5 5-5h11.55c2.762 0 5-2.239 5-5s-2.238-5-5-5h-11.55c-8.271 0-15 6.729-15 15v76.453c0 1.815.34 3.548.934 5.16h-8.768c-.002 0-.003 0-.005 0 0-.001 0-.001 0-.002v-34.766c0-5.514-4.486-10-10-10h-34.766c-5.514 0-10 4.486-10 10v34.766h-34.767v-34.766c0-5.514-4.486-10-10-10h-34.766c-5.514 0-10 4.486-10 10v34.766h-34.767v-34.766c0-5.514-4.486-10-10-10h-34.766c-5.514 0-10 4.486-10 10v34.766h-34.765c-5.514 0-10 4.486-10 10v34.766c0 5.514 4.486 10 10 10h34.767v34.766h-34.767c-5.514 0-10 4.486-10 10v34.766c0 5.514 4.486 10 10 10h34.767c5.514 0 10-4.486 10-10v-34.766h34.766v34.766c0 5.514 4.486 10 10 10h34.767c5.514 0 10-4.486 10-10v-34.766h34.766c5.514 0 10-4.486 10-10v-34.766h34.767v34.766c0 5.514 4.486 10 10 10h34.766c5.514 0 10-4.486 10-10v-34.766c0-.002 0-.003 0-.005h.005 34.76c5.514 0 10-4.486 10-10v-34.76c0-.054-.007-.106-.008-.16h54.452c8.271 0 15-6.729 15-15v-76.453c-.002-8.27-6.731-14.999-15.002-14.999zm-349.36-44.094c0 2.757-2.243 5-5 5h-12.242c-2.757 0-5-2.243-5-5v-24.896c0-2.757 2.243-5 5-5h12.242c2.757 0 5 2.243 5 5zm72.178 0c0 2.757-2.243 5-5 5h-12.241c-2.757 0-5-2.243-5-5v-24.896c0-2.757 2.243-5 5-5h12.241c2.757 0 5 2.243 5 5zm72.179 0c0 2.757-2.243 5-5 5h-12.242c-2.757 0-5-2.243-5-5v-24.896c0-2.757 2.243-5 5-5h12.242c2.757 0 5 2.243 5 5zm72.177 0c0 2.757-2.243 5-5 5h-12.241c-2.757 0-5-2.243-5-5v-24.896c0-2.757 2.243-5 5-5h12.241c2.757 0 5 2.243 5 5zm72.179 0c0 2.757-2.243 5-5 5h-12.242c-2.757 0-5-2.243-5-5v-24.896c0-2.757 2.243-5 5-5h12.242c2.757 0 5 2.243 5 5zm-83.328 105.94h34.766l.007 34.766h-34.772v-34.766zm34.766 44.766h.005v.002 34.76.005c-.002 0-.003 0-.005 0h-34.766v-34.766h34.766zm-124.298-44.766h34.766l.007 34.766h-34.772v-34.766zm34.765 44.766v34.766h-34.766v-34.766zm-44.765 0 .006 34.766h-34.772v-34.766zm-79.533-44.766h34.766l.007 34.766h-34.772v-34.766zm34.766 44.766v34.766h-34.766v-34.766zm-79.532 34.766v-34.766h34.767l.006 34.766zm0 89.532v-34.766h34.767l.006 34.766zm44.766-44.766v-34.766h34.766l.007 34.766zm79.533 44.766h-34.767v-34.766h34.767zm-34.767-44.766v-34.766h34.767v34.766zm44.767 0v-34.766h34.766l.007 34.766zm44.765-44.766v-34.766h34.767l.007 34.766zm44.767 44.766v-34.766h34.766l.007 34.766zm79.53-44.771h-34.76v-34.76l34.76-.006z"/><path d="m391.769 209.455v16.457c0 6.508 5.295 11.803 11.803 11.803h5.331c6.508 0 11.803-5.295 11.803-11.803v-16.457c0-6.508-5.295-11.803-11.803-11.803h-5.331c-6.508 0-11.803 5.295-11.803 11.803zm10 0c0-.994.809-1.803 1.803-1.803h5.331c.994 0 1.803.809 1.803 1.803v16.457c0 .994-.809 1.803-1.803 1.803h-5.331c-.994 0-1.803-.809-1.803-1.803z"/><path d="m451.616 203.411c-2.447-3.66-6.42-5.759-10.898-5.759-7.412 0-13.442 6.03-13.442 13.442 0 2.761 2.238 5 5 5s5-2.239 5-5c0-1.898 1.544-3.442 3.442-3.442 1.131 0 2.002.443 2.587 1.318.752 1.125.847 2.726.247 4.177-1.561 3.776-9.363 11.178-14.406 15.228-1.654 1.329-2.29 3.557-1.586 5.559s2.594 3.341 4.716 3.341h18.108c2.762 0 5-2.239 5-5s-2.238-5-5-5h-5.184c3.195-3.311 6.24-7.033 7.594-10.308 1.886-4.566 1.446-9.633-1.178-13.556z"/></g></g></g><g fill="#6583fe"><path d="m383.644 481.259c-1.279 0-2.56-.488-3.535-1.464l-5.465-5.464-5.465 5.464c-1.951 1.952-5.119 1.952-7.07 0-1.953-1.953-1.953-5.119 0-7.071l9-9c1.951-1.952 5.119-1.952 7.07 0l9 9c1.953 1.953 1.953 5.119 0 7.071-.975.976-2.255 1.464-3.535 1.464z"/><path d="m427.471 469.943c-1.279 0-2.56-.488-3.535-1.464l-5.465-5.464-5.465 5.464c-1.951 1.952-5.119 1.952-7.07 0-1.953-1.953-1.953-5.119 0-7.071l9-9c1.951-1.952 5.119-1.952 7.07 0l9 9c1.953 1.953 1.953 5.119 0 7.071-.975.976-2.255 1.464-3.535 1.464z"/><path d="m450.33 85.057c-1.279 0-2.56-.488-3.535-1.464l-5.465-5.464-5.465 5.464c-1.951 1.952-5.119 1.952-7.07 0-1.953-1.953-1.953-5.119 0-7.071l9-9c1.951-1.952 5.119-1.952 7.07 0l9 9c1.953 1.953 1.953 5.119 0 7.071-.976.975-2.256 1.464-3.535 1.464z"/><path d="m78.653 481.259c-1.279 0-2.56-.488-3.535-1.464l-5.465-5.464-5.465 5.464c-1.951 1.952-5.119 1.952-7.07 0-1.953-1.953-1.953-5.119 0-7.071l9-9c1.951-1.952 5.119-1.952 7.07 0l9 9c1.953 1.953 1.953 5.119 0 7.071-.975.976-2.256 1.464-3.535 1.464z"/><g><g><path d="m128.33 44.148c-.845 0-1.7-.214-2.485-.665l-.099-.057c-2.395-1.375-3.221-4.431-1.846-6.826 1.376-2.395 4.431-3.221 6.826-1.846l.099.057c2.395 1.375 3.221 4.431 1.846 6.826-.925 1.61-2.609 2.511-4.341 2.511z"/><path d="m153.231 58.525c-.845 0-1.7-.214-2.485-.665l-.099-.057c-2.395-1.375-3.221-4.431-1.846-6.826 1.376-2.395 4.431-3.221 6.826-1.846l.099.057c2.395 1.375 3.221 4.431 1.846 6.826-.925 1.61-2.608 2.511-4.341 2.511z"/></g><g><path d="m128.33 44.148c-.845 0-1.7-.214-2.485-.665l-.099-.057c-2.395-1.375-3.221-4.431-1.846-6.826 1.376-2.395 4.431-3.221 6.826-1.846l.099.057c2.395 1.375 3.221 4.431 1.846 6.826-.925 1.61-2.609 2.511-4.341 2.511z"/><path d="m153.231 58.525c-.845 0-1.7-.214-2.485-.665l-.099-.057c-2.395-1.375-3.221-4.431-1.846-6.826 1.376-2.395 4.431-3.221 6.826-1.846l.099.057c2.395 1.375 3.221 4.431 1.846 6.826-.925 1.61-2.608 2.511-4.341 2.511z"/></g><g><path d="m153.142 44.148c-1.732 0-3.416-.901-4.341-2.511-1.375-2.395-.549-5.451 1.846-6.826l.099-.057c2.397-1.376 5.451-.548 6.826 1.846s.549 5.451-1.846 6.826l-.099.057c-.784.451-1.641.665-2.485.665z"/><path d="m128.241 58.525c-1.732 0-3.416-.901-4.341-2.511-1.375-2.395-.549-5.451 1.846-6.826l.099-.057c2.397-1.376 5.451-.549 6.826 1.846s.549 5.451-1.846 6.826l-.099.057c-.785.451-1.641.665-2.485.665z"/></g><g><path d="m153.142 44.148c-1.732 0-3.416-.901-4.341-2.511-1.375-2.395-.549-5.451 1.846-6.826l.099-.057c2.397-1.376 5.451-.548 6.826 1.846s.549 5.451-1.846 6.826l-.099.057c-.784.451-1.641.665-2.485.665z"/><path d="m128.241 58.525c-1.732 0-3.416-.901-4.341-2.511-1.375-2.395-.549-5.451 1.846-6.826l.099-.057c2.397-1.376 5.451-.549 6.826 1.846s.549 5.451-1.846 6.826l-.099.057c-.785.451-1.641.665-2.485.665z"/></g><g><path d="m140.736 36.988c-2.762 0-5-2.239-5-5v-.114c0-2.761 2.238-5 5-5s5 2.239 5 5v.114c0 2.761-2.238 5-5 5z"/><path d="m140.736 65.741c-2.762 0-5-2.239-5-5v-.114c0-2.761 2.238-5 5-5s5 2.239 5 5v.114c0 2.761-2.238 5-5 5z"/></g></g></g></g></g></svg>