<svg id="Capa_1" enable-background="new 0 0 512 512" height="512" viewBox="0 0 512 512" width="512" xmlns="http://www.w3.org/2000/svg" xmlns:xlink="http://www.w3.org/1999/xlink"><linearGradient id="SVGID_1_" gradientUnits="userSpaceOnUse" x1="77.149" x2="479.082" y1="437.202" y2="35.269"><stop offset="0" stop-color="#d2dbfc" stop-opacity="0"/><stop offset="1" stop-color="#b8c2fb"/></linearGradient><g><g><path d="m96.22 207.204c35.281-35.189 103.995 3.458 142.931-27.637 24.927-19.907 28.845-64.594 38.791-85.974 28.604-61.488 113.314-112.119 166.993-87.023 21.753 10.17 38.743 32.762 32.171 61.475-10.555 46.114-88.46 65.43-93.594 128.426-3.587 44.017 49.544 100.736 8.683 136.438-33.979 29.689-88.612-5.037-130.079 12.462-76.01 32.074-5.737 111.227-58.948 154.963-17.52 14.4-45.736 16.401-62.141.744-34.96-42.908 2.924-116.971-76.039-128.083-35.539-5.001-43.234-44.121-11.693-63.278.128-.084.255-.168.383-.251 19.207-12.517 30.061-34.564 27.551-57.352-1.595-14.473 1.054-31.009 14.991-44.91z" fill="url(#SVGID_1_)"/></g><g><path d="m446.275 221.304h-65.993v-125.518c0-11.046-8.954-20-20-20h-208.564c-11.046 0-20 8.954-20 20v125.519h-65.994c-5.53 0-10 4.48-10 10v97.39c0 5.52 4.47 10 10 10h65.994v125.52c0 11.046 8.954 20 20 20h208.563c11.046 0 20-8.954 20-20v-125.52h65.993c5.53 0 10-4.48 10-10v-97.39c.001-5.521-4.469-10.001-9.999-10.001z" fill="#00c" opacity=".1"/><g><g><path d="m380.28 71.79v368.42c0 11.05-8.95 20-20 20h-208.56c-11.05 0-20-8.95-20-20v-368.42c0-11.05 8.95-20 20-20h208.56c11.05 0 20 8.95 20 20z" fill="#6583fe"/><g><g><path d="m339.982 409.798h-18.583c-2.761 0-5-2.239-5-5s2.239-5 5-5h18.583c2.761 0 5 2.239 5 5s-2.239 5-5 5z" fill="#00c"/></g><g><path d="m339.982 430.18h-58.583c-2.761 0-5-2.239-5-5s2.239-5 5-5h58.583c2.761 0 5 2.239 5 5s-2.239 5-5 5z" fill="#00c"/></g></g><g><g><path d="m355.558 386.161h-199.116c-2.761 0-5-2.239-5-5v-250.322c0-2.761 2.239-5 5-5h199.115c2.761 0 5 2.239 5 5v250.321c.001 2.762-2.238 5.001-4.999 5.001zm-194.116-10h189.115v-240.322h-189.115z" fill="#fff"/></g></g><path d="m380.282 102.68v-30.894c0-11.046-8.954-20-20-20h-208.564c-11.046 0-20 8.954-20 20v30.894z" fill="#fff"/></g><g fill="#00c"><circle cx="162.708" cy="80.076" r="5"/><circle cx="181.219" cy="80.076" r="5"/><circle cx="199.731" cy="80.076" r="5"/></g></g><g><g><path d="m456.275 207.304v97.39c0 5.52-4.47 10-10 10h-97.38c-5.53 0-10-4.48-10-10v-97.39c0-5.52 4.47-10 10-10h97.38c5.53 0 10 4.48 10 10z" fill="#6583fe"/><circle cx="406.865" cy="256.711" fill="#00c" r="19.913"/><path d="m456.275 268.024v36.67c0 5.52-4.47 10-10 10h-97.38c-5.53 0-10-4.48-10-10v-31.32l28.368-28.368c3.906-3.906 10.238-3.905 14.143.001l26.509 26.517 18.859-18.859c3.905-3.905 10.237-3.905 14.142 0z" fill="#fff"/></g><g><path d="m314.69 207.3v97.39c0 5.52-4.47 10-10 10h-97.38c-5.53 0-10-4.48-10-10v-97.39c0-5.52 4.47-10 10-10h97.38c5.53 0 10 4.48 10 10z" fill="#fff"/><path d="m314.69 236.76v38.48l-40.96 23.61c-9.05 5.22-20.36-1.31-20.36-11.76v-62.18c0-10.45 11.31-16.98 20.36-11.76z" fill="#6583fe"/></g><g><path d="m173.104 207.304v97.39c0 5.52-4.47 10-10 10h-97.38c-5.53 0-10-4.48-10-10v-97.39c0-5.52 4.47-10 10-10h97.38c5.53 0 10 4.48 10 10z" fill="#fff"/><circle cx="129.434" cy="240.982" fill="#6583fe" r="31.675"/></g></g><g><path d="m87.759 377.709c-1.28 0-2.559-.488-3.536-1.464l-10.5-10.5c-1.953-1.953-1.953-5.119 0-7.071l10.5-10.5c1.953-1.952 5.118-1.952 7.071 0l10.5 10.5c1.953 1.953 1.953 5.119 0 7.071l-10.5 10.5c-.976.976-2.255 1.464-3.535 1.464zm-3.428-15.5 3.429 3.429 3.429-3.429-3.429-3.429z" fill="#6583fe"/></g><g><path d="m412.864 148.606c-1.28 0-2.559-.488-3.536-1.464l-10.5-10.5c-1.953-1.953-1.953-5.119 0-7.071l10.5-10.5c1.953-1.952 5.118-1.952 7.071 0l10.5 10.5c1.953 1.953 1.953 5.119 0 7.071l-10.5 10.5c-.976.976-2.255 1.464-3.535 1.464zm-3.428-15.5 3.429 3.429 3.429-3.429-3.429-3.429z" fill="#6583fe"/></g><g><path d="m419.354 399.92c-1.031 0-2.062-.318-2.939-.955l-3.551-2.58-3.55 2.58c-1.752 1.273-4.125 1.273-5.878 0-1.752-1.273-2.486-3.53-1.816-5.59l1.356-4.174-3.551-2.58c-1.752-1.273-2.486-3.53-1.816-5.59s2.589-3.455 4.755-3.455h4.389l1.356-4.173c.669-2.06 2.589-3.455 4.755-3.455s4.086 1.395 4.755 3.455l1.356 4.174h4.389c2.166 0 4.086 1.395 4.755 3.455s-.064 4.317-1.816 5.59l-3.55 2.58 1.356 4.174c.669 2.06-.064 4.317-1.816 5.59-.876.636-1.908.954-2.939.954z" fill="#6583fe"/></g><g><path d="m433.246 446.721c-1.031 0-2.062-.318-2.939-.955l-3.551-2.58-3.55 2.58c-1.752 1.273-4.125 1.273-5.878 0-1.752-1.273-2.486-3.53-1.816-5.59l1.356-4.174-3.551-2.58c-1.752-1.273-2.486-3.53-1.816-5.59s2.589-3.455 4.755-3.455h4.389l1.356-4.173c.669-2.06 2.589-3.455 4.755-3.455s4.086 1.395 4.755 3.455l1.356 4.174h4.389c2.166 0 4.086 1.395 4.755 3.455s-.064 4.317-1.816 5.59l-3.55 2.58 1.356 4.174c.669 2.06-.064 4.317-1.816 5.59-.876.636-1.908.954-2.939.954z" fill="#6583fe"/></g><g><path d="m104.113 176.564c-1.031 0-2.062-.318-2.939-.955l-3.55-2.58-3.55 2.58c-1.752 1.273-4.125 1.273-5.878 0-1.752-1.273-2.486-3.53-1.816-5.59l1.356-4.174-3.55-2.58c-1.752-1.273-2.486-3.53-1.816-5.59s2.589-3.455 4.755-3.455h4.389l1.356-4.174c.669-2.06 2.589-3.455 4.755-3.455s4.086 1.395 4.755 3.455l1.356 4.174h4.389c2.166 0 4.086 1.395 4.755 3.455s-.064 4.317-1.816 5.59l-3.55 2.58 1.356 4.174c.669 2.06-.064 4.317-1.816 5.59-.878.637-1.91.955-2.941.955z" fill="#6583fe"/></g><path d="m235.099 272.028v-32.055c0-5.387 5.829-8.755 10.496-6.064l27.802 16.027c4.672 2.693 4.672 9.436 0 12.129l-27.802 16.028c-4.667 2.689-10.496-.679-10.496-6.065z" fill="#fff"/><g fill="#00c"><path d="m446.279 192.308h-97.388c-8.271 0-15 6.729-15 15v43.694h-14.198v-43.694c0-8.271-6.729-15-15-15h-97.388c-8.271 0-15 6.729-15 15v43.694h-14.198v-43.694c0-8.271-6.729-15-15-15h-26.387v-120.518c0-8.271 6.729-15 15-15h208.56c8.271 0 15 6.729 15 15v101.22c0 2.761 2.239 5 5 5s5-2.239 5-5v-101.22c0-13.785-11.215-25-25-25h-208.56c-13.785 0-25 11.215-25 25v120.517h-61c-8.271 0-15 6.729-15 15v97.388c0 8.271 6.729 15 15 15h18.18c2.761 0 5-2.239 5-5s-2.239-5-5-5h-18.179c-2.757 0-5-2.243-5-5v-97.388c0-2.757 2.243-5 5-5h97.388c2.757 0 5 2.243 5 5v97.388c0 2.757-2.243 5-5 5h-54.916c-2.761 0-5 2.239-5 5s2.239 5 5 5h18.527v120.515c0 13.785 11.215 25 25 25h208.56c13.785 0 25-11.215 25-25v-120.515h61c8.271 0 15-6.729 15-15v-97.387c-.001-8.271-6.73-15-15.001-15zm-243.973 15c0-2.757 2.243-5 5-5h97.388c2.757 0 5 2.243 5 5v97.387c0 2.757-2.243 5-5 5h-97.388c-2.757 0-5-2.243-5-5zm172.974 232.902c0 8.271-6.729 15-15 15h-208.56c-8.271 0-15-6.729-15-15v-120.515h26.388c8.271 0 15-6.729 15-15v-43.693h14.198v43.693c0 8.271 6.729 15 15 15h97.388c8.271 0 15-6.729 15-15v-43.693h14.198v43.693c0 8.271 6.729 15 15 15h26.388zm75.999-135.515c0 2.757-2.243 5-5 5h-97.388c-2.757 0-5-2.243-5-5v-97.387c0-2.757 2.243-5 5-5h97.388c2.757 0 5 2.243 5 5z"/><path d="m236.096 282.418c1.879 1.086 3.941 1.628 6.003 1.628 2.058 0 4.117-.541 5.993-1.623l27.802-16.027c3.762-2.168 6.007-6.055 6.007-10.396s-2.246-8.228-6.007-10.396l-27.802-16.027c-3.758-2.166-8.243-2.164-11.997.005-3.755 2.169-5.997 6.054-5.997 10.391v32.055c.001 4.336 2.242 8.221 5.998 10.39zm4.003-42.445c0-1.004.626-1.516 1-1.732.22-.127.574-.279 1.006-.279.299 0 .637.073.993.278l27.802 16.028c.871.502 1.001 1.301 1.001 1.732s-.13 1.23-1.001 1.733l-27.803 16.027c-.87.502-1.625.215-1.999-.001-.373-.216-1-.728-1-1.732v-32.054z"/></g><g><g><path d="m143.706 241.329h-18.583c-2.761 0-5-2.239-5-5s2.239-5 5-5h18.583c2.761 0 5 2.239 5 5s-2.239 5-5 5z" fill="#00c"/></g><g><path d="m143.706 261.711h-58.583c-2.761 0-5-2.239-5-5s2.239-5 5-5h58.583c2.761 0 5 2.239 5 5 0 2.762-2.239 5-5 5z" fill="#00c"/></g><g><path d="m143.706 282.093h-58.583c-2.761 0-5-2.239-5-5s2.239-5 5-5h58.583c2.761 0 5 2.239 5 5s-2.239 5-5 5z" fill="#00c"/></g></g></g></g></svg>