<svg id="Capa_1" enable-background="new 0 0 512 512" height="512" viewBox="0 0 512 512" width="512" xmlns="http://www.w3.org/2000/svg" xmlns:xlink="http://www.w3.org/1999/xlink"><linearGradient id="SVGID_1_" gradientTransform="matrix(1 0 0 -1 0 513.276)" gradientUnits="userSpaceOnUse" x1="484.555" x2="-53.444" y1="-159.024" y2="652.975"><stop offset="0" stop-color="#d2deff" stop-opacity="0"/><stop offset="1" stop-color="#b7c5ff"/></linearGradient><g><path d="m419.8 204.8c1.1-7.8 1.6-15.7 1.5-23.7-.6-90.1-74.2-163.5-164.2-164.1-91.8-.6-166.5 73.7-166.5 165.4 0 7.6.5 15.1 1.5 22.4 4 29.7-9.9 59.1-35.2 75.3-35.6 22.6-56.9 51.5-56.9 82.9 0 72.9 114.6 132 256 132s256-59.1 256-132c0-31.4-21.3-60.3-56.9-83-25.4-16.1-39.3-45.4-35.3-75.2z" fill="url(#SVGID_1_)"/><g><g><g><g><g><g><path d="m422 460.5h-332c-10.5 0-19-8.5-19-19v-350c0-10.5 8.5-19 19-19h332c10.5 0 19 8.5 19 19v349.9c0 10.6-8.5 19.1-19 19.1z" fill="#00c" opacity=".1"/><path d="m422 439.5h-332c-10.5 0-19-8.5-19-19v-350c0-10.5 8.5-19 19-19h332c10.5 0 19 8.5 19 19v349.9c0 10.6-8.5 19.1-19 19.1z" fill="#fff"/><path d="m441 107.7v-37.2c0-10.5-8.5-19-19-19h-332c-10.5 0-19 8.5-19 19v37.1z" fill="#fff"/><g fill="#00c"><g><path d="m422 46.5h-332c-13.3 0-24 10.8-24 24v37.1c0 2.8 2.2 5 5 5h365v307.8c0 7.7-6.3 14-14 14-2.8 0-5 2.2-5 5s2.2 5 5 5c13.3 0 24-10.8 24-24v-349.9c0-13.2-10.8-24-24-24zm-346 56.2v-32.2c0-7.7 6.3-14 14-14h332c7.7 0 14 6.3 14 14v32.1z"/><path d="m388 434.5h-298c-7.7 0-14-6.3-14-14v-278.8c0-2.8-2.2-5-5-5s-5 2.2-5 5v278.8c0 13.3 10.8 24 24 24h298c2.8 0 5-2.2 5-5s-2.3-5-5-5z"/></g><path d="m399.5 84.6h-16.5c-2.8 0-5-2.2-5-5s2.2-5 5-5h16.5c2.8 0 5 2.2 5 5s-2.2 5-5 5z"/><path d="m361 84.6h-16.5c-2.8 0-5-2.2-5-5s2.2-5 5-5h16.5c2.8 0 5 2.2 5 5s-2.2 5-5 5z"/><path d="m305.5 84.6h-136.5c-2.8 0-5-2.2-5-5s2.2-5 5-5h136.5c2.8 0 5 2.2 5 5s-2.2 5-5 5z"/></g></g></g><g><path d="m256 414.3c-2.8 0-5-2.2-5-5v-30.2c0-2.8 2.2-5 5-5s5 2.2 5 5v30.2c0 2.8-2.2 5-5 5z" fill="#00c"/><g><g><g><path d="m158.6 409.3h-42.5c-2.8 0-5-2.2-5-5s2.2-5 5-5h42.5c2.8 0 5 2.2 5 5s-2.3 5-5 5z" fill="#00c"/></g><g><path d="m221.6 409.3h-42.5c-2.8 0-5-2.2-5-5s2.2-5 5-5h42.5c2.8 0 5 2.2 5 5s-2.3 5-5 5z" fill="#00c"/></g><g><path d="m194.6 389.1h-78.5c-2.8 0-5-2.2-5-5s2.2-5 5-5h78.5c2.8 0 5 2.2 5 5s-2.3 5-5 5z" fill="#00c"/></g></g><g><g><g><path d="m395.9 409.3h-108c-2.8 0-5-2.2-5-5s2.2-5 5-5h108c2.8 0 5 2.2 5 5s-2.2 5-5 5z" fill="#00c"/></g><g><path d="m395.9 389.1h-108c-2.8 0-5-2.2-5-5s2.2-5 5-5h108c2.8 0 5 2.2 5 5s-2.2 5-5 5z" fill="#00c"/></g></g></g></g></g><g><path d="m128.6 360.5h-12.5c-2.8 0-5-2.2-5-5s2.2-5 5-5h12.5c2.8 0 5 2.2 5 5s-2.3 5-5 5z" fill="#00c"/></g><g><g><g><path d="m216.5 322.9c0 7.6 6.2 13.8 13.8 13.8h49.7c7.6 0 13.8-6.2 13.8-13.8 0-7.6-6.2-13.8-13.8-13.8h-49.7c-7.6 0-13.8 6.2-13.8 13.8z" fill="#6583fe"/></g></g></g></g><g><g><path d="m214.7 149v130c0 2.8 2.2 5 5 5h22.9c2.8 0 5-2.2 5-5v-85.6c0-4.6 3.8-8.4 8.4-8.4 4.6 0 8.4 3.8 8.4 8.4v85.6c0 2.8 2.2 5 5 5h22.9c2.8 0 5-2.2 5-5v-130c0-2.8-2.2-5-5-5h-72.7c-2.7 0-4.9 2.2-4.9 5z" fill="#6583fe"/><path d="m214.7 269v10c0 2.8 2.2 5 5 5h22.9c2.8 0 5-2.2 5-5v-10z" fill="#6583fe"/><path d="m264.4 269v10c0 2.8 2.2 5 5 5h22.9c2.8 0 5-2.2 5-5v-10z" fill="#6583fe"/><g fill="#00c"><path d="m277.5 158.2c.2 8.5 4.8 16.3 12.2 20.6l7.6 4.4v-24.9h-19.8z"/><path d="m234.5 158.2c-.2 8.5-4.8 16.3-12.2 20.6l-7.6 4.4v-24.9h19.8z"/><path d="m240.2 159.8h-4.8c-.6 0-1-.4-1-1v-14.8h6.8v14.8c0 .5-.4 1-1 1z"/><path d="m276.5 159.8h-4.8c-.6 0-1-.4-1-1v-14.8h6.8v14.8c0 .5-.4 1-1 1z"/></g></g><g><g><g fill="#6583fe"><path d="m312.2 184.7v86.6c0 1.8 1.5 3.3 3.3 3.3h15.3c1.8 0 3.3-1.5 3.3-3.3v-57c0-3.1 2.5-5.6 5.6-5.6 3.1 0 5.6 2.5 5.6 5.6v57c0 1.8 1.5 3.3 3.3 3.3h15.3c1.8 0 3.3-1.5 3.3-3.3v-86.6c0-1.8-1.5-3.3-3.3-3.3h-48.4c-1.8 0-3.3 1.5-3.3 3.3z"/><path d="m367.2 190.8v-6.1c0-1.8-1.5-3.3-3.3-3.3h-48.4c-1.8 0-3.3 1.5-3.3 3.3v6.1z"/><path d="m312.2 264.6v6.7c0 1.8 1.5 3.3 3.3 3.3h15.3c1.8 0 3.3-1.5 3.3-3.3v-6.7z"/><path d="m345.3 264.6v6.7c0 1.8 1.5 3.3 3.3 3.3h15.3c1.8 0 3.3-1.5 3.3-3.3v-6.7z"/></g><path d="m354 190.8c.1 5.7 3.2 10.9 8.1 13.7l5.1 2.9v-16.6z" fill="#00c"/><path d="m325.4 190.8c-.1 5.7-3.2 10.9-8.1 13.7l-5.1 2.9v-16.6z" fill="#00c"/><path d="m329.2 191.9h-3.2c-.4 0-.7-.3-.7-.7v-9.8h4.5v9.8c.1.4-.2.7-.6.7z" fill="#00c"/><path d="m353.4 191.9h-3.2c-.4 0-.7-.3-.7-.7v-9.8h4.5v9.8c0 .4-.3.7-.6.7z" fill="#00c"/></g><g><path d="m144.8 184.7v86.6c0 1.8 1.5 3.3 3.3 3.3h15.3c1.8 0 3.3-1.5 3.3-3.3v-57c0-3.1 2.5-5.6 5.6-5.6 3.1 0 5.6 2.5 5.6 5.6v57c0 1.8 1.5 3.3 3.3 3.3h15.3c1.8 0 3.3-1.5 3.3-3.3v-86.6c0-1.8-1.5-3.3-3.3-3.3h-48.4c-1.9 0-3.3 1.5-3.3 3.3z" fill="#6583fe"/><path d="m144.8 264.6v6.7c0 1.8 1.5 3.3 3.3 3.3h15.3c1.8 0 3.3-1.5 3.3-3.3v-6.7z" fill="#6583fe"/><path d="m177.9 264.6v6.7c0 1.8 1.5 3.3 3.3 3.3h15.3c1.8 0 3.3-1.5 3.3-3.3v-6.7z" fill="#6583fe"/><g fill="#00c"><path d="m186.6 190.8c.1 5.7 3.2 10.9 8.1 13.7l5.1 2.9v-16.6z"/><path d="m158 190.8c-.1 5.7-3.2 10.9-8.1 13.7l-5.1 2.9v-16.6z"/><path d="m161.8 191.9h-3.2c-.4 0-.7-.3-.7-.7v-9.8h4.5v9.8c0 .4-.3.7-.6.7z"/><path d="m186 191.9h-3.2c-.4 0-.7-.3-.7-.7v-9.8h4.5v9.8c0 .4-.3.7-.6.7z"/></g></g></g><g><ellipse cx="304.3" cy="193.1" fill="#fff" rx="21.4" ry="21.4"/><g><path d="m304.2 219.4c-2.9 0-5.8-.5-8.7-1.5-13.7-4.8-21-19.9-16.2-33.6 2.3-6.6 7.1-12 13.4-15s13.5-3.5 20.1-1.1c13.7 4.8 21 19.9 16.2 33.6-3.7 10.8-13.9 17.6-24.8 17.6zm.1-42.7c-2.4 0-4.8.5-7.1 1.6-3.9 1.9-6.9 5.2-8.3 9.3-3 8.5 1.5 17.9 10 20.8 8.5 3 17.9-1.5 20.8-10 3-8.5-1.5-17.9-10-20.8-1.8-.6-3.6-.9-5.4-.9z" fill="#00c"/></g><path d="m299.6 202.8c-1.3 0-2.6-.5-3.5-1.5-2-2-2-5.1 0-7.1l10-10c2-2 5.1-2 7.1 0s2 5.1 0 7.1l-10 10c-1.1 1-2.3 1.5-3.6 1.5z" fill="#00c"/></g></g></g></g><g><g fill="#6583fe"><path d="m39.1 106.9c-1.3 0-2.6-.5-3.5-1.5-2-2-2-5.1 0-7.1l10-10c2-2 5.1-2 7.1 0s2 5.1 0 7.1l-10 10c-1 1-2.3 1.5-3.6 1.5z"/><path d="m465.9 343.5c-1.3 0-2.6-.5-3.5-1.5-2-2-2-5.1 0-7.1l10-10c2-2 5.1-2 7.1 0s2 5.1 0 7.1l-10 10c-1.1 1-2.3 1.5-3.6 1.5z"/></g><g><path d="m49.1 346.7c-1.3 0-2.6-.5-3.5-1.5l-6.5-6.5-6.5 6.5c-2 2-5.1 2-7.1 0s-2-5.1 0-7.1l10-10c2-2 5.1-2 7.1 0l10 10c2 2 2 5.1 0 7.1-.9 1-2.2 1.5-3.5 1.5z" fill="#6583fe"/></g><g><path d="m482.9 225.5c-1.3 0-2.6-.5-3.5-1.5l-6.5-6.5-6.5 6.5c-2 2-5.1 2-7.1 0s-2-5.1 0-7.1l10-10c2-2 5.1-2 7.1 0l10 10c2 2 2 5.1 0 7.1-1 1-2.2 1.5-3.5 1.5z" fill="#6583fe"/></g><path d="m39.1 391.8c-1.3 0-2.6-.5-3.5-1.5-2-2-2-5.1 0-7.1l10-10c2-2 5.1-2 7.1 0s2 5.1 0 7.1l-10 10c-1 1-2.3 1.5-3.6 1.5z" fill="#6583fe"/></g></g></g></svg>