<svg id="Capa_1" enable-background="new 0 0 512 512" height="512" viewBox="0 0 512 512" width="512" xmlns="http://www.w3.org/2000/svg" xmlns:xlink="http://www.w3.org/1999/xlink"><linearGradient id="SVGID_1_" gradientUnits="userSpaceOnUse" x1="76.444" x2="485.717" y1="448.995" y2="39.722"><stop offset="0" stop-color="#d2deff" stop-opacity="0"/><stop offset="1" stop-color="#b7c5ff"/></linearGradient><g><g><g><g><path d="m491.317 45.805c-60.958-44.505-129.484 25.896-170.058 74.661-19.081 22.934-52 54.275-81.963 33.185-22.453-15.804-16.509-59.052-42.326-68.401-59.779-21.647-178.097 130.731-195.89 239.885-7.178 44.033 22.163 91.911 65.761 82.234 14.523-3.224 46.7-21.051 60.845-25.664 77.317-25.216 54.433 55.389 83.662 88.458 16.182 18.308 45.168 17.126 68.782 10.855 108.503-28.815 156.372-91.33 204.157-212.685 22.416-56.931 45.658-194.326 7.03-222.528z" fill="url(#SVGID_1_)"/></g></g><g><g><path d="m452.553 276.914h-46.781c-4.417-49.165-29.624-92.331-66.771-120.648 11.74-19.312 25.835-45.294 25.835-58.736 0-23.034-18.673-41.707-41.707-41.707s-41.707 18.673-41.707 41.707c0 8.127 5.232 20.84 12.003 33.891-18.127-6.537-37.671-10.108-58.052-10.108-37.982 0-73.068 12.384-101.457 33.323-4.341-18.401-20.856-32.1-40.583-32.1-23.034 0-41.708 18.673-41.708 41.707 0 13.686 14.832 40.367 26.873 59.776-9.147 20.95-14.233 44.079-14.233 68.4 0 58.944 29.807 110.923 75.167 141.696 8.874 17.891 21.41 37.257 27.857 46.871 1.991 2.969 6.357 2.955 8.327-.028 3.571-5.407 9.03-13.886 14.677-23.446 14.364 3.913 29.474 6.014 45.078 6.014 7.697 0 15.272-.517 22.7-1.502v9.36c0 4.32 3.5 7.82 7.82 7.82h186.66c4.32 0 7.82-3.5 7.82-7.82v-186.66c.002-4.32-3.498-7.81-7.818-7.81z" fill="#00c" opacity=".1"/><g><g><g><path d="m364.837 73.53c0 18.523-26.766 60.865-37.25 76.74-1.97 2.983-6.336 2.997-8.327.028-10.631-15.853-37.838-58.235-37.838-76.769 0-23.034 18.673-41.707 41.707-41.707 23.034.001 41.708 18.674 41.708 41.708z" fill="#fff"/><circle cx="323.129" cy="73.53" fill="#6583fe" r="22.553"/></g><g><circle cx="235.373" cy="268.42" fill="#fff" r="171.106"/><g fill="#6583fe"><path d="m237.923 312.216v30.207c0 2.515-.999 4.927-2.777 6.705l-30.955 30.955c-1.778 1.778-2.777 4.19-2.777 6.705v24.495c0 2.515-.999 4.927-2.777 6.705l-13.923 13.923c-40.55-12.56-74.65-39.78-96.1-75.47l25.063-25.063c1.778-1.778 2.777-4.19 2.777-6.705v-11.575c0-2.515.999-4.927 2.777-6.705l3.268-3.268c3.703-3.703 3.703-9.707 0-13.41l-9.798-9.798c-1.778-1.778-4.19-2.777-6.705-2.777-5.237 0-9.482-4.245-9.482-9.482v-7.32c0-2.515-.999-4.927-2.777-6.705l-24.854-24.853c8.04-33.89 26.16-63.89 51.02-86.64l28.563 28.563c1.778 1.778 2.777 4.19 2.777 6.705v56.295c0 2.515.999 4.927 2.777 6.705l12.355 12.355c1.778 1.778 2.777 4.19 2.777 6.705v14.095c0 2.515.999 4.927 2.777 6.705l11.405 11.405c1.778 1.778 4.19 2.777 6.705 2.777h30.123c2.516 0 4.929 1 6.707 2.78l8.277 8.283c1.779 1.778 2.777 4.189 2.777 6.703z"/><path d="m406.483 268.42c0 64.72-35.93 121.05-88.94 150.12l-32.65-32.65c-3.91-3.9-3.91-10.23 0-14.14l23.91-23.92c1.88-1.87 2.93-4.42 2.93-7.07v-51.82c0-2.65-1.05-5.19-2.93-7.07l-13.71-13.71c-1.87-1.88-4.42-2.93-7.07-2.93h-32.3c-2.66 0-5.2-1.06-7.07-2.93l-17.44-17.44c-1.88-1.88-2.93-4.42-2.93-7.07v-31.69c0-2.65 1.05-5.2 2.93-7.07l4.86-4.86c3.9-3.91 3.9-10.24 0-14.14l-5.16-5.16c-3.9-3.9-3.9-10.23 0-14.14l55.64-55.64c35.82 11.21 66.57 33.88 87.96 63.71l-20.43 20.43c-1.87 1.87-4.42 2.93-7.07 2.93h-12.58c-2.65 0-5.19 1.05-7.07 2.93l-4.1 4.09c-1.87 1.88-2.93 4.42-2.93 7.07v13.04c0 5.53 4.48 10 10 10h9.8c2.65 0 5.19 1.06 7.07 2.93l11.9 11.9c1.87 1.88 4.42 2.93 7.07 2.93h38.99c.87 7 1.32 14.13 1.32 21.37z"/></g></g><g><path d="m135.042 140.244c0 18.523-26.766 60.865-37.25 76.74-1.97 2.983-6.336 2.997-8.327.028-10.631-15.853-37.838-58.235-37.838-76.769 0-23.034 18.673-41.707 41.707-41.707s41.708 18.674 41.708 41.708z" fill="#fff"/><circle cx="93.334" cy="140.244" fill="#6583fe" r="22.553"/></g><g><path d="m212.868 380.218c0 18.523-26.766 60.865-37.25 76.74-1.97 2.983-6.336 2.997-8.327.028-10.631-15.853-37.838-58.235-37.838-76.769 0-23.034 18.673-41.707 41.707-41.707s41.708 18.673 41.708 41.708z" fill="#fff"/><circle cx="171.161" cy="380.218" fill="#6583fe" r="22.553"/></g></g><g><g><g><g><path d="m460.373 260.724v186.66c0 4.32-3.5 7.82-7.82 7.82h-186.66c-4.32 0-7.82-3.5-7.82-7.82v-186.66c0-4.32 3.5-7.81 7.82-7.81h186.66c4.32 0 7.82 3.49 7.82 7.81z" fill="#fff"/><path d="m460.37 373.983v39.366h-29.69v-9.229h4.85v-7.82h-4.85v-22.317z" fill="#6583fe"/><g><path d="m439.971 396.304h-9.293v7.814h9.293c2.158 0 3.907-1.749 3.907-3.907 0-2.158-1.749-3.907-3.907-3.907z" fill="#fff"/></g><path d="m460.369 404.118c-7.653 0-13.857-6.204-13.857-13.857s6.204-13.857 13.857-13.857z" fill="#fff"/></g><g><path d="m408.58 282.6-120.81 120.81v-116.9c0-2.16 1.75-3.91 3.9-3.91z" fill="#6583fe"/><path d="m430.67 304.7v116.9c0 2.16-1.75 3.91-3.9 3.91h-116.91l105.58-105.58z" fill="#6583fe"/><path d="m430.673 286.514v18.19l-15.23 15.23-105.58 105.58h-18.19c-2.16 0-3.9-1.75-3.9-3.91v-18.19l120.81-120.81h18.19c2.16 0 3.9 1.75 3.9 3.91z" fill="#fff"/><path d="m426.51 383.21v7.82h4.17v22.32h-25.29c-2.16 0-3.91-1.75-3.91-3.91v-31.55c0-2.16 1.75-3.91 3.91-3.91h25.29v9.23z" fill="#fff"/><g fill="#6583fe"><path d="m430.678 391.028h-16.223c-2.158 0-3.907-1.749-3.907-3.907 0-2.158 1.749-3.907 3.907-3.907h16.223z"/><path d="m430.678 404.118h-16.223c-2.158 0-3.907-1.749-3.907-3.907 0-2.158 1.749-3.907 3.907-3.907h16.223z"/></g></g><g><path d="m287.769 343.899c-10.331 0-18.707-8.375-18.707-18.707s8.375-18.707 18.707-18.707z" fill="#6583fe"/><path d="m287.769 307.067c10.01 0 18.125 8.115 18.125 18.125s-8.115 18.125-18.125 18.125z" fill="#fff"/></g></g></g></g></g></g><g fill="#6583fe"><path d="m115.887 468.41c-2.762 0-5-2.238-5-5 0-3.032-2.468-5.5-5.5-5.5-2.762 0-5-2.238-5-5s2.238-5 5-5c3.032 0 5.5-2.468 5.5-5.5 0-2.762 2.238-5 5-5s5 2.238 5 5c0 3.032 2.468 5.5 5.5 5.5 2.762 0 5 2.238 5 5s-2.238 5-5 5c-3.032 0-5.5 2.468-5.5 5.5 0 2.762-2.239 5-5 5z"/><path d="m227.988 71.323c-2.762 0-5-2.238-5-5 0-3.032-2.468-5.5-5.5-5.5-2.762 0-5-2.238-5-5s2.238-5 5-5c3.032 0 5.5-2.468 5.5-5.5 0-2.762 2.238-5 5-5s5 2.238 5 5c0 3.032 2.468 5.5 5.5 5.5 2.762 0 5 2.238 5 5s-2.238 5-5 5c-3.032 0-5.5 2.468-5.5 5.5 0 2.762-2.238 5-5 5z"/><path d="m50.884 369.027c-1.279 0-2.56-.488-3.535-1.465l-5.465-5.464-5.465 5.464c-1.951 1.953-5.119 1.953-7.07 0-1.953-1.952-1.953-5.118 0-7.07l9-9c1.951-1.953 5.119-1.953 7.07 0l9 9c1.953 1.952 1.953 5.118 0 7.07-.976.977-2.256 1.465-3.535 1.465z"/><path d="m68.884 449.026c-1.279 0-2.56-.488-3.535-1.465l-5.465-5.464-5.465 5.464c-1.951 1.953-5.119 1.953-7.07 0-1.953-1.952-1.953-5.118 0-7.07l9-9c1.951-1.953 5.119-1.953 7.07 0l9 9c1.953 1.952 1.953 5.118 0 7.07-.976.977-2.256 1.465-3.535 1.465z"/><path d="m425.09 151.64c-1.279 0-2.56-.488-3.535-1.465l-5.465-5.464-5.465 5.464c-1.951 1.953-5.119 1.953-7.07 0-1.953-1.952-1.953-5.118 0-7.07l9-9c1.951-1.953 5.119-1.953 7.07 0l9 9c1.953 1.952 1.953 5.118 0 7.07-.976.976-2.256 1.465-3.535 1.465z"/></g></g></g><g><g><g><g><g><g><g><g><path d="m452.555 247.91h-42.267c-4.856-41.859-24.552-80.487-55.789-109.193-2.9-2.665-5.881-5.219-8.93-7.668 16.095-26.979 24.272-46.332 24.272-57.518 0-25.756-20.954-46.71-46.71-46.71s-46.71 20.954-46.71 46.71c0 6.185 2.428 14.601 7.37 25.535-15.596-4.45-31.871-6.756-48.419-6.756-27.798 0-54.407 6.304-79.089 18.734-2.467 1.242-3.459 4.249-2.217 6.715s4.25 3.458 6.715 2.217c23.273-11.723 48.369-17.666 74.591-17.666 84.744 0 154.666 62.214 164.842 145.601h-134.322c-7.065 0-12.814 5.748-12.814 12.814v101.764c0 2.762 2.238 5 5 5s5-2.238 5-5v-101.764c0-1.552 1.263-2.814 2.814-2.814h186.663c1.552 0 2.814 1.263 2.814 2.814v186.664c0 1.552-1.263 2.814-2.814 2.814h-186.663c-1.552 0-2.814-1.263-2.814-2.814v-55.506c0-2.762-2.238-5-5-5s-5 2.238-5 5v41.699c-5.88.62-11.816.948-17.707.948-12.635 0-25.178-1.436-37.384-4.246 10.502-18.392 19.882-38.152 19.882-50.067 0-25.754-20.953-46.707-46.707-46.707-25.755 0-46.708 20.953-46.708 46.707 0 4.028 1.095 8.958 2.946 14.421-36.689-31.405-58.13-77.348-58.13-126.218 0-19.829 3.436-39.121 10.213-57.475 2.052 3.176 4.018 6.151 5.829 8.852 1.863 2.778 4.966 4.434 8.308 4.434h.035c3.354-.012 6.46-1.69 8.309-4.49 14.222-21.531 38.079-60.49 38.079-79.496 0-25.755-20.953-46.708-46.708-46.708-25.754 0-46.707 20.953-46.707 46.708 0 14.161 13.424 39.371 26.247 60.222-9.02 21.543-13.604 44.391-13.604 67.954 0 57.996 28.478 112.111 76.232 145.058 8.268 16.51 19.503 34.164 27.636 46.293 1.863 2.778 4.967 4.435 8.308 4.435.012 0 .024 0 .036-.001 3.354-.012 6.46-1.69 8.309-4.49 3.823-5.789 8.343-12.841 12.908-20.422 13.896 3.463 28.229 5.239 42.672 5.239 5.89 0 11.823-.298 17.707-.883v3.742c0 7.066 5.749 12.814 12.814 12.814h186.663c7.066 0 12.814-5.748 12.814-12.814v-186.667c-.001-7.067-5.749-12.815-12.815-12.815zm-166.135-174.38c0-20.242 16.468-36.71 36.71-36.71s36.71 16.468 36.71 36.71c0 9.003-7.887 27.172-22.29 51.449-12.578-8.976-26.212-16.208-40.558-21.563-8.692-17.067-10.572-25.673-10.572-29.886zm-193.086 30.006c20.241 0 36.708 16.467 36.708 36.708 0 13.891-18.815 47.326-36.425 73.983-17.882-26.665-36.99-60.104-36.99-73.983 0-20.241 16.467-36.708 36.707-36.708zm78.109 350.665c-17.882-26.666-36.99-60.104-36.99-73.983 0-20.24 16.467-36.707 36.708-36.707 20.24 0 36.707 16.467 36.707 36.707 0 13.887-18.814 47.324-36.425 73.983z" fill="#00c"/></g></g></g></g></g></g></g></g></g></svg>