<svg id="Capa_1" enable-background="new 0 0 512 512" height="512" viewBox="0 0 512 512" width="512" xmlns="http://www.w3.org/2000/svg" xmlns:xlink="http://www.w3.org/1999/xlink"><linearGradient id="SVGID_1_" gradientUnits="userSpaceOnUse" x1="13.94" x2="498.06" y1="256" y2="256"><stop offset="0" stop-color="#d1ddff" stop-opacity="0"/><stop offset="1" stop-color="#b6c4ff"/></linearGradient><g><g><path d="m494.189 391.904c-34.395-102.635-125.942-141.855-40.377-258.987 88.39-120.999-76.801-161.06-168.001-113.29-33.616 17.608-65.006 39.008-98.12 57.558-33.812 18.941-125.975-40.916-134.968 22.783-4.121 29.193 29.781 52.269 31.273 83.383 1.743 36.336-28.078 51.202-51.534 71.394-35.673 30.71-16.936 124.87 31.587 135.051 22.938 4.813 44.086-12.428 66.073-20.534 87.993-32.442 130.704 64.719 181.72 116.821 59.946 61.22 212.352 7.617 182.347-94.179z" fill="url(#SVGID_1_)"/></g><g><g><g><g><g><g fill="#2626bb"><circle cx="239.014" cy="124.5" opacity=".1" r="73.989"/><path d="m62.328 237.427v22.871c0 5.523 4.477 10 10 10h3.324l5.117 34.289h-2.887c-3.155 0-5.522 2.887-4.903 5.98l2 10c.467 2.337 2.52 4.02 4.903 4.02h3.872l6.102 40.886h-2.973c-3.155 0-5.522 2.887-4.903 5.981l2 10c.467 2.337 2.52 4.019 4.903 4.019h3.958l3.226 21.618c2.858 19.157 19.62 33.604 38.989 33.604h132.552c-1.039 3.795-1.605 7.786-1.605 11.911 0 24.853 20.147 45 45 45s45-20.147 45-45c0-.885-.032-1.762-.083-2.634 9.943 9.819 23.595 15.887 38.674 15.887 30.421 0 55.082-24.661 55.082-55.082s-24.661-55.082-55.082-55.082c-1.686 0-3.35.088-4.997.236l4.677-31.344h3.871c2.383 0 4.435-1.682 4.903-4.02l2-10c.619-3.094-1.748-5.98-4.903-5.98h-2.887l5.117-34.289h3.324c5.523 0 10-4.477 10-10v-22.871c0-5.523-4.477-10-10-10h-94.375l60.342-118.544c2.505-4.922.546-10.943-4.375-13.448l-13.828-7.039c-4.922-2.505-10.943-.546-13.448 4.375l-68.544 134.656h-64.915l-68.543-134.655c-2.505-4.922-8.526-6.881-13.448-4.375l-13.828 7.039c-4.922 2.505-6.881 8.526-4.375 13.448l60.342 118.544h-94.376c-5.522-.001-10 4.477-10 9.999zm253.5 170.439c.044-.258.096-.514.135-.775l3.226-21.619h26.484c-3.928 7.579-6.161 16.178-6.161 25.303 0 2.529.18 5.015.515 7.452-6.681-5.646-15.026-9.383-24.199-10.361zm61.21-103.279h-45.779l5.117-34.289h45.779zm-13.763 60.886h-41.102l6.101-40.886h45.779l-5.628 37.711c-1.779.963-3.495 2.028-5.15 3.175zm-114.261 20h49.953l-2.786 18.667c-.373 2.499-1.238 4.828-2.468 6.913-5.349 2.228-10.173 5.46-14.243 9.459-.822.109-1.652.183-2.498.183h-27.958zm0-60.886h59.039l-6.101 40.886h-52.938zm0-54.289h16.516c.929.742 1.945 1.403 3.046 1.963 6.409 3.262 13.858 2.248 19.135-1.963h28.443l-5.117 34.289h-62.024v-34.289zm-69.952 115.175h49.952v35.221h-27.958c-9.542 0-17.8-7.117-19.208-16.555zm-9.086-60.886h59.038v40.886h-52.937zm-2.985-20-5.117-34.289h28.442c5.277 4.211 12.726 5.225 19.135 1.963 1.101-.56 2.117-1.221 3.046-1.963h16.516v34.289zm-53.929 80.886h45.778l3.226 21.618c.731 4.898 2.375 9.484 4.734 13.604h-31.745c-9.542 0-17.8-7.117-19.208-16.555zm-9.086-60.886h45.778l6.102 40.886h-45.778zm-8.102-54.289h45.778l5.117 34.289h-45.778z" opacity=".1"/></g><g><g><g><g><path d="m335.9 225.94c-1.9-2.21-4.66-3.47-7.57-3.47h-178.63c-2.91 0-5.68 1.26-7.58 3.47-1.9 2.2-2.74 5.13-2.31 8l22.26 149.15c1.04 6.98 3.93 13.34 8.12 18.6h137.64c4.2-5.26 7.09-11.62 8.13-18.6l22.26-149.15c.43-2.87-.42-5.8-2.32-8zm-39.72 154.2c-1.41 9.44-9.67 16.55-19.21 16.55h-75.91c-9.55 0-17.8-7.11-19.21-16.55l-20.55-137.67h155.43z" fill="#6582fd"/></g><path d="m229.014 222.463h20v179.228h-20z" fill="#6582fd"/></g><g><path d="m96.066 383.09-22.258-149.147c-.43-2.878.416-5.8 2.315-8.004s4.665-3.472 7.575-3.472h310.63c2.91 0 5.676 1.268 7.575 3.472s2.745 5.126 2.315 8.004l-22.257 149.148c-2.859 19.156-19.622 33.603-38.99 33.603h-207.915c-19.37 0-36.131-14.446-38.99-33.604zm-.763-140.623 20.545 137.672c1.408 9.438 9.666 16.555 19.208 16.555h207.917c9.542 0 17.801-7.117 19.209-16.555l20.545-137.672z" fill="#6582fd"/></g></g><path d="m62.324 213.423v22.88c0 5.52 4.48 10 10 10h333.38c5.52 0 10-4.48 10-10v-22.88c0-5.52-4.48-10-10-10h-333.38c-5.52 0-10 4.48-10 10z" fill="#fff"/><g><path d="m398.146 300.587h-318.264c-2.383 0-4.435-1.682-4.903-4.019l-2-10c-.619-3.094 1.748-5.981 4.903-5.981h322.264c3.155 0 5.522 2.887 4.903 5.981l-2 10c-.468 2.337-2.52 4.019-4.903 4.019z" fill="#fff"/></g><g><path d="m389.146 361.473h-300.264c-2.383 0-4.435-1.682-4.903-4.019l-2-10c-.619-3.094 1.748-5.981 4.903-5.981h304.264c3.155 0 5.522 2.887 4.903 5.981l-2 10c-.468 2.336-2.52 4.019-4.903 4.019z" fill="#fff"/></g></g></g><g><g><path d="m258.577 248.261c8.74 4.449 19.433.97 23.882-7.77l79.209-155.608c2.505-4.922.546-10.943-4.375-13.448l-13.828-7.039c-4.922-2.505-10.943-.546-13.448 4.375l-79.209 155.608c-4.451 8.741-.972 19.433 7.769 23.882z" fill="#6582fd"/><circle cx="270.487" cy="224.863" fill="#fff" r="5"/></g><g><path d="m219.452 248.261c-8.74 4.449-19.433.97-23.882-7.77l-79.209-155.607c-2.505-4.922-.546-10.943 4.375-13.448l13.828-7.039c4.922-2.505 10.943-.546 13.448 4.375l79.209 155.608c4.45 8.74.971 19.432-7.769 23.881z" fill="#6582fd"/><circle cx="207.541" cy="224.863" fill="#fff" r="5"/></g></g></g><g><circle cx="394.594" cy="386.776" fill="#6582fd" r="55.082"/><g fill="#fff"><path d="m422.52 366.745h-5.444c-2.761 0-5 2.239-5 5s2.239 5 5 5h.444v25.062c0 2.761 2.239 5 5 5s5-2.239 5-5v-30.062c0-2.761-2.239-5-5-5z"/><path d="m401.251 373.473h-.967l.242-1.11c.588-2.698-1.121-5.362-3.819-5.951-2.696-.587-5.362 1.122-5.951 3.819l-.708 3.242h-6.371l.242-1.11c.588-2.698-1.121-5.362-3.819-5.951-2.696-.587-5.362 1.122-5.951 3.819l-.708 3.242h-3.15c-2.761 0-5 2.239-5 5s2.239 5 5 5h.968l-1.442 6.606h-3.15c-2.761 0-5 2.239-5 5s2.239 5 5 5h.967l-.242 1.11c-.588 2.698 1.121 5.362 3.819 5.951.359.078.718.116 1.071.116 2.3 0 4.37-1.596 4.88-3.935l.708-3.242h6.371l-.241 1.111c-.588 2.698 1.121 5.362 3.819 5.951.359.078.718.116 1.071.116 2.3 0 4.37-1.596 4.88-3.935l.708-3.242h3.15c2.761 0 5-2.239 5-5s-2.239-5-5-5h-.968l1.442-6.606h3.15c2.761 0 5-2.239 5-5s-2.24-5.001-5.001-5.001zm-14.827 16.606h-6.371l1.442-6.606h6.371z"/></g></g><g><circle cx="239.014" cy="100.5" fill="#fff" r="73.989"/><g fill="#6582fd"><path d="m274.893 76.892c-.95-1.135-2.354-1.79-3.833-1.79h-51.818l-2.75-8.507c-.667-2.063-2.589-3.462-4.758-3.462h-12.765c-2.761 0-5 2.238-5 5s2.239 5 5 5h9.127l10.468 32.381h-.019c-2.761 0-5 2.238-5 5s2.239 5 5 5h47.086c2.422 0 4.497-1.736 4.922-4.121l5.429-30.412c.26-1.457-.139-2.954-1.089-4.089zm-13.449 28.623h-32.371l-6.599-20.412h42.613z"/><circle cx="225.632" cy="132.741" r="7.5"/><circle cx="261.069" cy="132.741" r="7.5"/></g></g></g><g><circle cx="311.003" cy="428.605" fill="#fff" r="45"/><path d="m395.432 326.711 3.16-21.144c4.559-.205 8.457-3.508 9.36-8.019l1.999-9.999c.591-2.949-.164-5.975-2.071-8.301-1.285-1.568-2.989-2.672-4.881-3.234l3.698-24.765c7.807-.517 14.004-7.014 14.004-14.949v-22.87c0-8.271-6.729-15-15-15h-76.8c-2.762 0-5 2.238-5 5s2.238 5 5 5h76.8c2.757 0 5 2.243 5 5v22.87c0 2.757-2.243 5-5 5h-118.042l78.469-154.155c3.746-7.372.798-16.417-6.57-20.161l-13.825-7.036c-3.569-1.822-7.636-2.142-11.446-.904-3.811 1.239-6.909 3.89-8.723 7.458l-9.183 18.038c-7.402-35.929-39.279-63.027-77.367-63.027-38.087 0-69.963 27.097-77.366 63.025l-9.18-18.032c-1.815-3.573-4.914-6.223-8.726-7.462-3.812-1.237-7.879-.918-11.452.902l-13.811 7.035c-3.577 1.814-6.23 4.913-7.471 8.726-1.237 3.806-.92 7.868.896 11.442l7.47 14.67c1.254 2.461 4.264 3.436 6.725 2.188 2.461-1.253 3.44-4.264 2.188-6.725l-7.468-14.666c-.606-1.192-.712-2.547-.3-3.816.412-1.267 1.294-2.296 2.491-2.903l13.818-7.039c1.193-.609 2.551-.717 3.822-.303 1.268.412 2.298 1.293 2.903 2.484l16.549 32.506c.909 23.841 12.431 44.996 29.97 58.887l32.689 64.214c.928 1.826 1.398 3.77 1.398 5.775 0 4.828-2.675 9.19-6.979 11.384-3.036 1.546-6.492 1.818-9.733.763-3.24-1.054-5.876-3.308-7.422-6.345l-58.391-114.71c-1.252-2.461-4.264-3.441-6.725-2.188s-3.44 4.264-2.188 6.725l35.826 70.381h-96.217c-8.271 0-15 6.729-15 15v22.87c0 7.935 6.197 14.433 14.004 14.949l3.697 24.765c-1.893.562-3.597 1.665-4.882 3.233-1.907 2.326-2.662 5.353-2.072 8.301l2 9.999c.902 4.515 4.806 7.821 9.371 8.021l4.672 31.304c-1.927.553-3.665 1.667-4.97 3.261-1.907 2.328-2.662 5.354-2.071 8.298l2.001 10.004c.911 4.54 4.855 7.857 9.451 8.02l2.596 17.371c3.21 21.587 22.098 37.865 43.935 37.865h126.433c-.314 2.262-.489 4.568-.489 6.915 0 27.57 22.43 50 50 50 24.989 0 45.755-18.427 49.424-42.406 9.965 6.919 21.782 10.661 34.163 10.661 33.134 0 60.09-26.952 60.09-60.08-.003-32.853-26.505-59.617-59.251-60.071zm-161.422 9.759v-30.883h10v30.883zm-53.62 0-4.608-30.883h48.228v30.883zm-86.22 0-4.609-30.883h10.11l4.608 30.883zm20.22 0-4.608-30.883h35.668l4.609 30.883zm45.78 0-4.609-30.883h10.11l4.608 30.883zm93.84-30.883h48.239l-4.608 30.883h-43.631zm58.35 0h10.109l-4.608 30.883h-10.109zm20.219 0h35.678l-4.42 29.597c-.691.414-1.37.846-2.042 1.286h-33.824zm45.79 0h10.109l-3.264 21.839c-3.619.57-7.127 1.472-10.503 2.659zm-144.359-30v-24.287h10v24.287zm12.344-53.476c-2.758 5.417-3.241 11.584-1.36 17.365.203.623.442 1.227.693 1.823h-13.323c1.163-2.756 1.796-5.761 1.796-8.88 0-3.544-.858-7.107-2.484-10.309l-6.965-13.682h28.608zm7.656 29.242c.739.491 1.5.955 2.302 1.363 3.246 1.652 6.761 2.488 10.301 2.488 2.367 0 4.747-.374 7.063-1.128 2.043-.665 3.942-1.61 5.678-2.776h31.004l-3.626 24.287h-52.722zm66.459-.053h10.108l-3.626 24.287h-10.109zm20.22 0h35.669l-3.626 24.287h-35.669zm45.78 0h10.108l-3.626 24.287h-10.109zm-51.991-180.266c.604-1.188 1.634-2.068 2.901-2.48 1.266-.412 2.621-.307 3.813.303l13.833 7.041c2.454 1.247 3.436 4.261 2.188 6.714l-79.21 155.61c-3.192 6.269-10.891 8.773-17.155 5.582-3.037-1.546-5.291-4.182-6.345-7.422-1.055-3.24-.784-6.696.763-9.733l32.692-64.221c17.537-13.89 29.056-35.042 29.967-58.879zm-164.453 29.466c0-38.04 30.948-68.988 68.988-68.988 38.041 0 68.989 30.948 68.989 68.988s-30.948 68.988-68.989 68.988c-38.039 0-68.988-30.948-68.988-68.988zm68.989 78.988c11.64 0 22.69-2.551 32.649-7.092l-13.253 26.034h-38.79l-13.252-26.032c9.959 4.54 21.007 7.09 32.646 7.09zm-27.596 75.716c3.54 0 7.056-.836 10.303-2.489.798-.407 1.556-.865 2.289-1.351v24.223h-52.711l-3.627-24.287h31.004c1.736 1.167 3.635 2.111 5.678 2.776 2.317.754 4.696 1.128 7.064 1.128zm-126.34 20.383-3.626-24.287h10.109l3.627 24.287zm20.221 0-3.627-24.287h35.669l3.626 24.287zm45.779 0-3.626-24.287h10.109l3.627 24.287zm-83.748-39.287v-22.87c0-2.757 2.243-5 5-5h101.31l16.732 32.87h-118.042c-2.757 0-5-2.243-5-5zm332.816 49.287-1.997 10h-318.266l-2.001-10zm-50.072 60.883c-2.774 3.061-5.226 6.416-7.328 10h-253.862l-2.004-10zm-28.556 33.258 1.981-13.258h14.551c-2.043 5.673-3.248 11.74-3.483 18.052-4.05-2.174-8.432-3.802-13.049-4.794zm-44.201 11.962h-23.307v-25.22h39.157l-1.933 12.936c-.197 1.324-.583 2.6-1.139 3.798-4.695 2.171-9.003 5.039-12.778 8.486zm-43.307 0v-25.22h10v25.221h-10zm-32.95 0c-7.086 0-13.219-5.283-14.265-12.29l-1.932-12.931h39.147v25.221zm-46.529-25.22 2.594 17.356c.4 2.688 1.046 5.315 1.929 7.864h-23.994c-7.086 0-13.219-5.283-14.265-12.29l-1.932-12.931h35.668zm15.308 25.22c-1.389-2.968-2.341-6.096-2.823-9.34l-2.373-15.881h10.108l2.153 14.408c.601 4.023 2.209 7.696 4.517 10.812h-11.582zm133.439-25.22h10.109l-1.816 12.15c-.19-.002-.378-.014-.569-.014-3.312 0-6.547.332-9.68.949zm-168.218 45.22c-16.921 0-31.557-12.611-34.044-29.34l-2.373-15.881h10.108l2.153 14.408c1.772 11.865 12.157 20.812 24.155 20.812h133.839c-2 3.117-3.669 6.464-4.944 10h-128.894zm175.943 56.915c-22.056 0-40-17.944-40-40s17.944-40 40-40 40 17.944 40 40-17.944 40-40 40zm83.587-31.745c-12.641 0-24.58-4.67-33.831-13.172-1.235-12.592-7.16-23.827-16.001-31.932-.164-1.65-.248-3.317-.248-4.976 0-27.62 22.466-50.091 50.08-50.091 27.62 0 50.09 22.471 50.09 50.091 0 27.615-22.47 50.08-50.09 50.08z" fill="#2626bb"/><g><g><g><path d="m326.238 425.778c3.415 0 6.184-2.769 6.184-6.184v-3.138c0-3.415-2.769-6.184-6.184-6.184s-6.184 2.769-6.184 6.184v3.138c.001 3.416 2.77 6.184 6.184 6.184z" fill="#6582fd"/></g><g><path d="m295.767 425.778c3.415 0 6.184-2.769 6.184-6.184v-3.138c0-3.415-2.769-6.184-6.184-6.184s-6.184 2.769-6.184 6.184v3.138c0 3.416 2.769 6.184 6.184 6.184z" fill="#6582fd"/></g></g><path d="m311.003 450.936c-8.3 0-15.818-4.449-19.928-11.339-1.672-2.802-.103-6.434 3.046-7.288 2.119-.575 4.413.27 5.535 2.157 2.336 3.931 6.619 6.471 11.347 6.471s9.01-2.54 11.347-6.471c1.122-1.887 3.416-2.732 5.535-2.157 3.149.854 4.718 4.486 3.047 7.288-4.112 6.89-11.629 11.339-19.929 11.339z" fill="#6582fd"/></g></g></g><g><path d="m119.444 476.937c-2.762 0-5-2.238-5-5 0-3.032-2.468-5.5-5.501-5.5-2.762 0-5-2.238-5-5s2.238-5 5-5c3.033 0 5.501-2.468 5.501-5.5 0-2.762 2.238-5 5-5s5 2.238 5 5c0 3.032 2.467 5.5 5.499 5.5 2.762 0 5 2.238 5 5s-2.238 5-5 5c-3.032 0-5.499 2.468-5.499 5.5 0 2.761-2.238 5-5 5z" fill="#6582fd"/></g><g><path d="m382.474 61.463c-2.762 0-5-2.238-5-5 0-3.032-2.468-5.5-5.5-5.5-2.762 0-5-2.238-5-5s2.238-5 5-5c3.032 0 5.5-2.468 5.5-5.5 0-2.762 2.238-5 5-5s5 2.238 5 5c0 3.032 2.468 5.5 5.5 5.5 2.762 0 5 2.238 5 5s-2.238 5-5 5c-3.032 0-5.5 2.468-5.5 5.5 0 2.762-2.239 5-5 5z" fill="#6582fd"/></g><g><path d="m99.812 178.209c-1.279 0-2.56-.488-3.535-1.465l-10.5-10.5c-1.953-1.952-1.953-5.118 0-7.07l10.5-10.5c1.951-1.953 5.119-1.953 7.07 0l10.5 10.5c1.953 1.952 1.953 5.118 0 7.07l-10.5 10.5c-.976.977-2.256 1.465-3.535 1.465zm-3.429-15.5 3.429 3.429 3.429-3.429-3.429-3.429z" fill="#6582fd"/></g><g><path d="m396.535 122.021c-1.279 0-2.56-.488-3.535-1.465l-10.5-10.5c-1.953-1.952-1.953-5.118 0-7.07l10.5-10.5c1.951-1.953 5.119-1.953 7.07 0l10.5 10.5c1.953 1.952 1.953 5.118 0 7.07l-10.5 10.5c-.975.976-2.256 1.465-3.535 1.465zm-3.429-15.5 3.429 3.429 3.429-3.429-3.429-3.429z" fill="#6582fd"/></g><g><path d="m72.881 441.278c-1.279 0-2.56-.488-3.535-1.465l-10.5-10.5c-1.953-1.952-1.953-5.118 0-7.07l10.5-10.5c1.951-1.953 5.119-1.953 7.07 0l10.5 10.5c1.953 1.952 1.953 5.118 0 7.07l-10.5 10.5c-.976.977-2.256 1.465-3.535 1.465zm-3.429-15.5 3.429 3.429 3.429-3.429-3.429-3.429z" fill="#6582fd"/></g></g></g></svg>