<svg id="Capa_1" enable-background="new 0 0 512 512" height="512" viewBox="0 0 512 512" width="512" xmlns="http://www.w3.org/2000/svg" xmlns:xlink="http://www.w3.org/1999/xlink"><linearGradient id="SVGID_1_" gradientUnits="userSpaceOnUse" x1="42.73" x2="446.887" y1="256" y2="256"><stop offset="0" stop-color="#d2deff" stop-opacity="0"/><stop offset="1" stop-color="#b7c5ff"/></linearGradient><g><g><path d="m381.086 210.037c-.343-33.611 36.219-56.57 53.692-81.591 24.774-35.475 10.716-69.941-34.716-75.657-17.862-2.247-35.788 2.238-53.464.227-36.687-4.172-34.053-54.421-76.002-52.985-42.481 1.454-47.067 34.144-55.64 69.056-7.729 31.474-29.232 26.798-53.536 12.45-83.043-49.027-159.737 93.469-93.756 148.709 29.39 24.605 70.853 30.91 107.354 41.663 28.957 8.53 60.301 21.401 80.573 44.693 25.108 28.849 15.143 60.534-4.919 88.614-16.983 23.77-33.44 59.704-11.462 85.844 50.216 59.725 136.311-22.822 171.378-67.072 39.817-50.243 27.434-116.28-8.234-166.106-10.317-14.411-21.087-30.12-21.268-47.845z" fill="url(#SVGID_1_)"/></g><g><g><g fill="#2626bc" opacity=".1"><path d="m452.055 483.096h-19.016v-366.221l-140.02 140.02-52.431-52.431-105.95 105.95-36.867-36.867-55.209 55.209v-255.154c0-2.762-2.239-5-5-5s-5 2.238-5 5v414.494c0 2.762 2.239 5 5 5h414.494c2.762 0 5-2.238 5-5s-2.239-5-5.001-5z"/><path d="m75.629 113.769v27.421c0 3.314 2.686 6 6 6h59.879c1.943 0 3.766-.941 4.892-2.526l9.738-13.71c1.478-2.081 1.478-4.868 0-6.949l-9.738-13.711c-1.125-1.584-2.948-2.526-4.892-2.526h-59.879c-3.313.001-6 2.688-6 6.001z"/><path d="m220.152 132.48h11.598c2.761 0 5-2.238 5-5s-2.239-5-5-5h-11.598c-2.761 0-5 2.238-5 5s2.239 5 5 5z"/><path d="m257.825 132.48h11.597c2.762 0 5-2.238 5-5s-2.238-5-5-5h-11.597c-2.762 0-5 2.238-5 5s2.238 5 5 5z"/><path d="m295.497 132.48h11.598c2.762 0 5-2.238 5-5s-2.238-5-5-5h-11.598c-2.762 0-5 2.238-5 5s2.238 5 5 5z"/><path d="m333.169 132.48h11.597c2.762 0 5-2.238 5-5s-2.238-5-5-5h-11.597c-2.762 0-5 2.238-5 5s2.239 5 5 5z"/><path d="m370.841 132.48h11.598c2.762 0 5-2.238 5-5s-2.238-5-5-5h-11.598c-2.762 0-5 2.238-5 5s2.239 5 5 5z"/><path d="m182.48 132.48h11.598c2.761 0 5-2.238 5-5s-2.239-5-5-5h-11.598c-2.761 0-5 2.238-5 5s2.238 5 5 5z"/><path d="m77.023 68.904h18.583c2.761 0 5-2.238 5-5s-2.239-5-5-5h-18.583c-2.761 0-5 2.238-5 5s2.239 5 5 5z"/></g><g><g><path d="m37.561 309.756 60.21-60.21 36.867 36.867 105.95-105.95 52.431 52.431 140.02-140.019v371.22h-395.478z" fill="#6583fe"/><path d="m134.638 286.413v177.681h158.38v-231.197l-52.43-52.434z" fill="#fff"/><path d="m433.044 92.871v371.223h-140.026v-231.197z" fill="#6583fe"/></g><path d="m141.508 83.769h-59.879c-3.314 0-6 2.686-6 6v27.421c0 3.314 2.686 6 6 6h59.879c1.943 0 3.766-.941 4.892-2.526l9.738-13.711c1.478-2.081 1.478-4.868 0-6.949l-9.738-13.709c-1.126-1.584-2.948-2.526-4.892-2.526z" fill="#fff"/></g><g><circle cx="363.031" cy="269.841" fill="#fff" r="39.915"/><g><g><path d="m359.242 260.011h13.578c2.761 0 5-2.238 5-5s-2.239-5-5-5h-13.578c-6.065 0-11 4.935-11 11v2.83c0 6.065 4.935 11 11 11h7.578c.551 0 1 .448 1 1v2.83c0 .552-.449 1-1 1h-13.578c-2.761 0-5 2.238-5 5s2.239 5 5 5h13.578c6.065 0 11-4.935 11-11v-2.83c0-6.065-4.935-11-11-11h-7.578c-.551 0-1-.448-1-1v-2.83c0-.552.449-1 1-1z" fill="#6583fe"/></g></g></g><g><g fill="#2626bc"><path d="m452.055 459.096h-409.493v-147.269l55.209-55.208 33.332 33.33c1.953 1.953 5.118 1.953 7.071 0l102.414-102.414 48.896 48.896c1.951 1.953 5.119 1.953 7.07 0l76.916-76.916c1.953-1.952 1.953-5.118 0-7.07-1.951-1.953-5.119-1.953-7.07 0l-73.381 73.38-48.896-48.896c-.938-.938-2.209-1.465-3.536-1.465s-2.598.526-3.536 1.465l-102.413 102.413-33.332-33.33c-1.953-1.953-5.118-1.953-7.071 0l-51.674 51.673v-248.083c0-2.762-2.239-5-5-5s-5 2.238-5 5v414.494c0 2.762 2.239 5 5 5h414.493c2.762 0 5-2.238 5-5s-2.238-5-4.999-5z"/><path d="m384.92 140.994c.976.977 2.256 1.465 3.535 1.465s2.56-.488 3.535-1.465l44.584-44.584c1.953-1.952 1.953-5.118 0-7.07-1.951-1.953-5.119-1.953-7.07 0l-44.584 44.584c-1.953 1.952-1.953 5.118 0 7.07z"/><path d="m81.629 128.19h11.47c2.761 0 5-2.238 5-5s-2.239-5-5-5h-11.47c-.551 0-1-.448-1-1v-27.42c0-.179.06-.338.142-.483l60.737-.517c.323 0 .628.157.815.421l9.739 13.712c.246.346.246.811 0 1.157l-9.739 13.711c-.187.263-.492.42-.815.42h-22.218c-2.761 0-5 2.238-5 5s2.239 5 5 5h22.218c3.557 0 6.909-1.731 8.968-4.63l9.739-13.71c2.707-3.812 2.706-8.932 0-12.74l-9.739-13.712c-2.06-2.898-5.412-4.629-8.967-4.629h-59.88c-1.159 0-2.276.183-3.325.517h-1.281c-2.761 0-5 2.238-5 5 0 .041.011.079.012.119-.892 1.589-1.406 3.416-1.406 5.364v27.421c0 6.065 4.935 10.999 11 10.999z"/><path d="m220.152 108.48h11.598c2.761 0 5-2.238 5-5s-2.239-5-5-5h-11.598c-2.761 0-5 2.238-5 5s2.239 5 5 5z"/><path d="m257.824 108.48h11.598c2.762 0 5-2.238 5-5s-2.238-5-5-5h-11.598c-2.762 0-5 2.238-5 5s2.238 5 5 5z"/><path d="m295.497 108.48h11.597c2.762 0 5-2.238 5-5s-2.238-5-5-5h-11.597c-2.762 0-5 2.238-5 5s2.238 5 5 5z"/><path d="m333.169 108.48h11.598c2.762 0 5-2.238 5-5s-2.238-5-5-5h-11.598c-2.762 0-5 2.238-5 5s2.238 5 5 5z"/><path d="m370.842 108.48h11.597c2.762 0 5-2.238 5-5s-2.238-5-5-5h-11.597c-2.762 0-5 2.238-5 5s2.238 5 5 5z"/><path d="m182.479 108.48h11.598c2.761 0 5-2.238 5-5s-2.239-5-5-5h-11.598c-2.761 0-5 2.238-5 5s2.239 5 5 5z"/><path d="m77.023 44.904h18.583c2.761 0 5-2.238 5-5s-2.239-5-5-5h-18.583c-2.761 0-5 2.238-5 5s2.239 5 5 5z"/><path d="m77.023 65.286h58.583c2.761 0 5-2.238 5-5s-2.239-5-5-5h-58.583c-2.761 0-5 2.238-5 5s2.239 5 5 5z"/><path d="m329.488 341.394h26.162c2.761 0 5-2.239 5-5s-2.239-5-5-5h-26.162c-2.761 0-5 2.239-5 5s2.238 5 5 5z"/><path d="m396.575 351.776h-67.087c-2.761 0-5 2.239-5 5s2.239 5 5 5h67.087c2.761 0 5-2.239 5-5s-2.239-5-5-5z"/><path d="m396.575 372.157h-67.087c-2.761 0-5 2.239-5 5s2.239 5 5 5h67.087c2.761 0 5-2.239 5-5s-2.239-5-5-5z"/><circle cx="371.588" cy="328.344" r="5"/><path d="m142.765 378.938h-26.162c-2.761 0-5 2.239-5 5s2.239 5 5 5h26.162c2.761 0 5-2.239 5-5s-2.239-5-5-5z"/><path d="m142.765 399.319h-67.087c-2.761 0-5 2.239-5 5s2.239 5 5 5h67.087c2.761 0 5-2.239 5-5s-2.239-5-5-5z"/><path d="m142.765 419.701h-67.087c-2.761 0-5 2.239-5 5s2.239 5 5 5h67.087c2.761 0 5-2.239 5-5s-2.239-5-5-5z"/><circle cx="100.664" cy="375.887" r="5"/></g><g><circle cx="199.824" cy="389.786" fill="#6583fe" r="39.915"/><g><g><g><path d="m212.613 383.785v-2.829c0-6.065-4.935-11-11-11h-11.578c-2.761 0-5 2.238-5 5v29.659c0 2.762 2.239 5 5 5h13.578c6.065 0 11-4.935 11-11v-2.83c0-2.896-1.125-5.535-2.962-7.502.618-1.374.962-2.896.962-4.498zm-17.577-3.829h6.578c.551 0 1 .448 1 1v2.829c0 .552-.449 1-1 1h-6.578zm9.577 18.659c0 .552-.449 1-1 1h-8.578v-4.83h8.578c.551 0 1 .448 1 1z" fill="#fff"/></g></g></g></g></g></g><g><path d="m114.814 228.595c-1.28 0-2.559-.488-3.536-1.465l-4.964-4.964-4.964 4.964c-1.953 1.953-5.118 1.953-7.071 0-1.953-1.952-1.953-5.118 0-7.07l8.5-8.5c1.953-1.953 5.118-1.953 7.071 0l8.5 8.5c1.953 1.952 1.953 5.118 0 7.07-.976.976-2.256 1.465-3.536 1.465z" fill="#6583fe"/></g><g><path d="m474.438 425.329c-1.279 0-2.56-.488-3.535-1.465l-4.965-4.964-4.965 4.964c-1.951 1.953-5.119 1.953-7.07 0-1.953-1.952-1.953-5.118 0-7.07l8.5-8.5c1.951-1.953 5.119-1.953 7.07 0l8.5 8.5c1.953 1.952 1.953 5.118 0 7.07-.975.977-2.255 1.465-3.535 1.465z" fill="#6583fe"/></g><g><path d="m474.438 78.154c-1.279 0-2.56-.488-3.535-1.465l-4.965-4.964-4.965 4.964c-1.951 1.953-5.119 1.953-7.07 0-1.953-1.952-1.953-5.118 0-7.07l8.5-8.5c1.951-1.953 5.119-1.953 7.07 0l8.5 8.5c1.953 1.952 1.953 5.118 0 7.07-.975.977-2.255 1.465-3.535 1.465z" fill="#6583fe"/></g><g><g><g><path d="m158.492 39.421c-.848 0-1.707-.216-2.494-.67l-.098-.057c-2.392-1.381-3.212-4.438-1.832-6.83s4.437-3.213 6.83-1.832l.098.057c2.392 1.381 3.212 4.438 1.832 6.83-.927 1.604-2.608 2.502-4.336 2.502z" fill="#6583fe"/></g><g><path d="m183.394 53.798c-.844 0-1.7-.214-2.485-.665l-.099-.057c-2.395-1.375-3.221-4.432-1.846-6.826s4.432-3.222 6.826-1.846l.099.057c2.395 1.375 3.221 4.432 1.846 6.826-.925 1.609-2.609 2.511-4.341 2.511z" fill="#6583fe"/></g></g><g><g><path d="m158.492 39.421c-.848 0-1.707-.216-2.494-.67l-.098-.057c-2.392-1.381-3.212-4.438-1.832-6.83s4.437-3.213 6.83-1.832l.098.057c2.392 1.381 3.212 4.438 1.832 6.83-.927 1.604-2.608 2.502-4.336 2.502z" fill="#6583fe"/></g><g><path d="m183.394 53.798c-.844 0-1.7-.214-2.485-.665l-.099-.057c-2.395-1.375-3.221-4.432-1.846-6.826s4.432-3.222 6.826-1.846l.099.057c2.395 1.375 3.221 4.432 1.846 6.826-.925 1.609-2.609 2.511-4.341 2.511z" fill="#6583fe"/></g></g><g><g><path d="m183.305 39.421c-1.732 0-3.417-.901-4.341-2.511-1.375-2.395-.549-5.451 1.846-6.826l.099-.057c2.394-1.373 5.451-.548 6.826 1.846 1.375 2.395.549 5.451-1.846 6.826l-.099.057c-.785.45-1.641.665-2.485.665z" fill="#6583fe"/></g><g><path d="m158.403 53.798c-1.729 0-3.409-.897-4.335-2.502-1.38-2.392-.561-5.449 1.832-6.83l.098-.057c2.391-1.381 5.449-.56 6.83 1.832 1.38 2.392.561 5.449-1.832 6.83l-.098.057c-.788.454-1.647.67-2.495.67z" fill="#6583fe"/></g></g><g><g><path d="m183.305 39.421c-1.732 0-3.417-.901-4.341-2.511-1.375-2.395-.549-5.451 1.846-6.826l.099-.057c2.394-1.373 5.451-.548 6.826 1.846 1.375 2.395.549 5.451-1.846 6.826l-.099.057c-.785.45-1.641.665-2.485.665z" fill="#6583fe"/></g><g><path d="m158.403 53.798c-1.729 0-3.409-.897-4.335-2.502-1.38-2.392-.561-5.449 1.832-6.83l.098-.057c2.391-1.381 5.449-.56 6.83 1.832 1.38 2.392.561 5.449-1.832 6.83l-.098.057c-.788.454-1.647.67-2.495.67z" fill="#6583fe"/></g></g><g><g><path d="m170.898 32.26c-2.761 0-5-2.238-5-5v-.113c0-2.762 2.239-5 5-5s5 2.238 5 5v.113c0 2.761-2.238 5-5 5z" fill="#6583fe"/></g><g><path d="m170.898 61.014c-2.761 0-5-2.238-5-5v-.114c0-2.762 2.239-5 5-5s5 2.238 5 5v.113c0 2.762-2.238 5.001-5 5.001z" fill="#6583fe"/></g></g></g><g><g><g><path d="m140.7 189.85c-.856 0-1.724-.221-2.517-.684l-.099-.058c-2.384-1.393-3.188-4.455-1.795-6.84 1.393-2.383 4.454-3.188 6.839-1.795l.099.058c2.384 1.393 3.188 4.455 1.795 6.84-.93 1.591-2.603 2.479-4.322 2.479z" fill="#6583fe"/></g><g><path d="m165.601 204.227c-.856 0-1.724-.221-2.517-.684l-.099-.058c-2.384-1.393-3.188-4.455-1.795-6.84 1.392-2.384 4.455-3.187 6.839-1.795l.099.058c2.384 1.393 3.188 4.455 1.795 6.84-.929 1.591-2.603 2.479-4.322 2.479z" fill="#6583fe"/></g></g><g><g><path d="m140.7 189.85c-.856 0-1.724-.221-2.517-.684l-.099-.058c-2.384-1.393-3.188-4.455-1.795-6.84 1.393-2.383 4.454-3.188 6.839-1.795l.099.058c2.384 1.393 3.188 4.455 1.795 6.84-.93 1.591-2.603 2.479-4.322 2.479z" fill="#6583fe"/></g><g><path d="m165.601 204.227c-.856 0-1.724-.221-2.517-.684l-.099-.058c-2.384-1.393-3.188-4.455-1.795-6.84 1.392-2.384 4.455-3.187 6.839-1.795l.099.058c2.384 1.393 3.188 4.455 1.795 6.84-.929 1.591-2.603 2.479-4.322 2.479z" fill="#6583fe"/></g></g><g><g><path d="m165.512 189.85c-1.719 0-3.393-.888-4.322-2.479-1.393-2.385-.589-5.447 1.795-6.84l.099-.058c2.385-1.393 5.447-.588 6.839 1.795 1.393 2.385.589 5.447-1.795 6.84l-.099.058c-.793.463-1.66.684-2.517.684z" fill="#6583fe"/></g><g><path d="m140.611 204.227c-1.719 0-3.393-.888-4.322-2.479-1.393-2.385-.589-5.447 1.795-6.84l.099-.058c2.385-1.392 5.447-.589 6.839 1.795 1.393 2.385.589 5.447-1.795 6.84l-.099.058c-.793.463-1.661.684-2.517.684z" fill="#6583fe"/></g></g><g><g><path d="m165.512 189.85c-1.719 0-3.393-.888-4.322-2.479-1.393-2.385-.589-5.447 1.795-6.84l.099-.058c2.385-1.393 5.447-.588 6.839 1.795 1.393 2.385.589 5.447-1.795 6.84l-.099.058c-.793.463-1.66.684-2.517.684z" fill="#6583fe"/></g><g><path d="m140.611 204.227c-1.719 0-3.393-.888-4.322-2.479-1.393-2.385-.589-5.447 1.795-6.84l.099-.058c2.385-1.392 5.447-.589 6.839 1.795 1.393 2.385.589 5.447-1.795 6.84l-.099.058c-.793.463-1.661.684-2.517.684z" fill="#6583fe"/></g></g><g><g><path d="m153.106 182.688c-2.761 0-5-2.238-5-5v-.114c0-2.762 2.239-5 5-5s5 2.238 5 5v.114c0 2.762-2.239 5-5 5z" fill="#6583fe"/></g><g><path d="m153.106 211.442c-2.761 0-5-2.238-5-5v-.114c0-2.762 2.239-5 5-5s5 2.238 5 5v.114c0 2.762-2.239 5-5 5z" fill="#6583fe"/></g></g></g></g></g></svg>