<?xml version="1.0" encoding="UTF-8"?>
<svg xmlns="http://www.w3.org/2000/svg" xmlns:xlink="http://www.w3.org/1999/xlink" version="1.1" id="Capa_1" x="0px" y="0px" viewBox="0 0 512 512" style="enable-background:new 0 0 512 512;" xml:space="preserve" width="512" height="512">
<g>
	<g>
		<linearGradient id="SVGID_1_" gradientUnits="userSpaceOnUse" x1="59.6209" y1="482.4984" x2="471.9765" y2="70.1428">
			<stop offset="0" style="stop-color:#D1DDFF;stop-opacity:0"/>
			<stop offset="1" style="stop-color:#B6C4FF"/>
		</linearGradient>
		<path style="fill:url(#SVGID_1_);" d="M504.052,189.168C447.671-10.204,397.94-53.209,228.783,138.233&#10;&#9;&#9;&#9;C129.573,250.512,5.594,114.485,0.107,331.374c-2.039,80.581,24.682,154.852,113.287,164.661&#10;&#9;&#9;&#9;c124.094,13.737,149.618-131.364,241.122-109.567C505.221,422.367,527.468,271.969,504.052,189.168z"/>
	</g>
	<g>
		<g>
			<path style="opacity:0.1;fill:#2626BC;" d="M482.029,451.944l-2.156-8.621c-1.113-4.451-5.113-7.574-9.701-7.574h-4.492v-3.024&#10;&#9;&#9;&#9;&#9;c0-7.456-4.888-13.766-11.632-15.913v-61.62c6.744-2.147,11.632-8.457,11.632-15.913v-3.699c0-2.209-1.791-4-4-4h-3.025&#10;&#9;&#9;&#9;&#9;c6.916-5.298,11.379-13.637,11.379-23.022c0-16.011-12.979-28.99-28.99-28.99c-14.318,0-26.204,10.383-28.558,24.029&#10;&#9;&#9;&#9;&#9;c-1.374-0.119-2.789,0.308-3.869,1.33c-7.612,7.204-16.327,12.733-25.628,16.628l-0.81-1.933&#10;&#9;&#9;&#9;&#9;c-0.828-1.975-3.059-2.933-5.071-2.198c-0.572,0.209-1.151,0.391-1.726,0.587V94.843c0-2.761-2.239-5-5-5H141.619&#10;&#9;&#9;&#9;&#9;c-2.761,0-5,2.239-5,5V318.01c-0.576-0.196-1.155-0.378-1.726-0.587c-2.011-0.734-4.243,0.224-5.071,2.198l-0.81,1.933&#10;&#9;&#9;&#9;&#9;c-9.301-3.895-18.017-9.423-25.628-16.628c-1.08-1.023-2.495-1.45-3.869-1.331c-2.355-13.645-14.24-24.028-28.558-24.028&#10;&#9;&#9;&#9;&#9;c-16.011,0-28.99,12.979-28.99,28.99c0,9.385,4.463,17.723,11.379,23.022h-3.025c-2.209,0-4,1.791-4,4v3.699&#10;&#9;&#9;&#9;&#9;c0,7.456,4.888,13.766,11.632,15.913v61.62c-6.744,2.147-11.632,8.457-11.632,15.913v3.024h-4.492&#10;&#9;&#9;&#9;&#9;c-4.588,0-8.588,3.122-9.701,7.573l-2.156,8.621c-0.789,3.156,1.598,6.213,4.851,6.213h72.269c3.253,0,5.64-3.057,4.851-6.213&#10;&#9;&#9;&#9;&#9;l-2.156-8.621c-1.113-4.451-5.113-7.574-9.701-7.574h-4.492v-3.024c0-7.456-4.888-13.766-11.632-15.913v-61.62&#10;&#9;&#9;&#9;&#9;c6.744-2.147,11.632-8.457,11.632-15.913v-3.699c0-2.209-1.791-4-4-4h-3.025c5.365-4.11,9.25-10.049,10.723-16.889&#10;&#9;&#9;&#9;&#9;c7.825,6.836,16.579,12.186,25.864,16.064l-0.751,1.79c-0.877,2.093,0.156,4.507,2.282,5.3c3.262,1.215,6.58,2.246,9.934,3.125&#10;&#9;&#9;&#9;&#9;v112.188c0,2.761,2.239,5,5,5h16.174c2.761,0,5-2.239,5-5v-8.996h54.169l-1.947,7.783c-0.789,3.156,1.597,6.213,4.851,6.213&#10;&#9;&#9;&#9;&#9;h72.269c3.253,0,5.64-3.057,4.851-6.213l-1.947-7.783h54.169v8.996c0,2.761,2.239,5,5,5h16.174c2.761,0,5-2.239,5-5V340.969&#10;&#9;&#9;&#9;&#9;c3.353-0.88,6.672-1.91,9.934-3.125c2.126-0.792,3.159-3.207,2.282-5.3l-0.751-1.79c9.285-3.878,18.039-9.228,25.864-16.064&#10;&#9;&#9;&#9;&#9;c1.474,6.839,5.359,12.779,10.723,16.889h-3.025c-2.209,0-4,1.791-4,4v3.699c0,7.456,4.888,13.766,11.632,15.913v61.62&#10;&#9;&#9;&#9;&#9;c-6.744,2.147-11.632,8.457-11.632,15.913v3.024h-4.492c-4.588,0-8.588,3.122-9.701,7.573l-2.156,8.621&#10;&#9;&#9;&#9;&#9;c-0.789,3.156,1.598,6.213,4.851,6.213h72.269C480.432,458.157,482.818,455.099,482.029,451.944z"/>
			<g>
				<g>
					<g>
						<g>
							<rect x="153.169" y="86.293" style="fill:#FFFFFF;" width="202.996" height="333.868"/>
							
								<line style="fill:none;stroke:#2626BC;stroke-width:10;stroke-linecap:round;stroke-linejoin:round;stroke-miterlimit:10;" x1="153.169" y1="420.161" x2="187.117" y2="420.161"/>
							
								<line style="fill:none;stroke:#2626BC;stroke-width:10;stroke-linecap:round;stroke-linejoin:round;stroke-miterlimit:10;" x1="296.985" y1="420.161" x2="356.165" y2="420.161"/>
						</g>
						<path style="fill:#6582FD;" d="M136.619,70.843v358.314c0,2.761,2.239,5,5,5h16.174c2.761,0,5-2.239,5-5V92.017h186.414&#10;&#9;&#9;&#9;&#9;&#9;&#9;&#9;v337.14c0,2.761,2.239,5,5,5h16.174c2.761,0,5-2.239,5-5V70.843c0-2.761-2.239-5-5-5H141.619&#10;&#9;&#9;&#9;&#9;&#9;&#9;&#9;C138.858,65.843,136.619,68.082,136.619,70.843z"/>
						
							<path style="fill:none;stroke:#2626BC;stroke-width:10;stroke-linecap:round;stroke-linejoin:round;stroke-miterlimit:10;" d="&#10;&#9;&#9;&#9;&#9;&#9;&#9;&#9;M349.207,162.51v266.647c0,2.761,2.239,5,5,5h16.174c2.761,0,5-2.239,5-5V70.843c0-2.761-2.239-5-5-5H141.619&#10;&#9;&#9;&#9;&#9;&#9;&#9;&#9;c-2.761,0-5,2.239-5,5v358.314c0,2.761,2.239,5,5,5h16.174c2.761,0,5-2.239,5-5V92.017h186.414v39.734"/>
						<g>
							<path style="fill:#6582FD;" d="M256,180.886l-14.517,5.162c-3.35,1.191-6.852-1.353-6.754-4.907l0.424-15.402l-9.396-12.211&#10;&#9;&#9;&#9;&#9;&#9;&#9;&#9;&#9;c-2.168-2.818-0.831-6.934,2.58-7.94l14.779-4.357l8.71-12.709c2.01-2.933,6.338-2.933,8.348,0l8.71,12.709l14.779,4.357&#10;&#9;&#9;&#9;&#9;&#9;&#9;&#9;&#9;c3.41,1.005,4.748,5.122,2.58,7.94l-9.396,12.211l0.424,15.402c0.098,3.554-3.404,6.098-6.754,4.907L256,180.886z"/>
							<path style="fill:#FFFFFF;" d="M246.999,161.891l-4.609-5.99c-0.67-0.871-0.257-2.144,0.798-2.455l7.249-2.137l4.272-6.234&#10;&#9;&#9;&#9;&#9;&#9;&#9;&#9;&#9;c0.622-0.907,1.96-0.907,2.581,0l4.272,6.234l7.249,2.137c1.055,0.311,1.468,1.584,0.798,2.455l-4.609,5.99l0.208,7.554&#10;&#9;&#9;&#9;&#9;&#9;&#9;&#9;&#9;c0.03,1.099-1.053,1.886-2.089,1.517L256,168.43l-7.121,2.532c-1.036,0.368-2.119-0.418-2.089-1.517L246.999,161.891z"/>
						</g>
						<path style="fill:#6582FD;" d="M286.845,221.777h-61.689c-2.761,0-5-2.239-5-5v-11.616c0-2.761,2.239-5,5-5h61.689&#10;&#9;&#9;&#9;&#9;&#9;&#9;&#9;c2.761,0,5,2.239,5,5v11.616C291.845,219.538,289.606,221.777,286.845,221.777z"/>
					</g>
				</g>
				<g>
					<path style="fill:#6582FD;" d="M321.36,372.578h-7.483c-2.761,0-5-2.239-5-5V145.973c0-2.761,2.239-5,5-5h7.483&#10;&#9;&#9;&#9;&#9;&#9;&#9;c2.761,0,5,2.239,5,5v221.605C326.36,370.339,324.121,372.578,321.36,372.578z"/>
				</g>
			</g>
			<g>
				<g>
					<circle style="fill:#6582FD;" cx="256" cy="284.558" r="28.99"/>
					<circle style="fill:#FFFFFF;" cx="250.644" cy="279.202" r="9.648"/>
					
						<circle style="fill:none;stroke:#2626BC;stroke-width:10;stroke-linecap:round;stroke-linejoin:round;stroke-miterlimit:10;" cx="256" cy="284.558" r="28.99"/>
					<g>
						<rect x="242.997" y="324.608" style="fill:#8298FD;" width="26.007" height="103.288"/>
						<rect x="242.997" y="324.608" style="fill:#6582FD;" width="26.007" height="103.288"/>
						
							<rect x="242.997" y="324.608" style="fill:none;stroke:#2626BC;stroke-width:10;stroke-linecap:round;stroke-linejoin:round;stroke-miterlimit:10;" width="26.007" height="103.288"/>
						<g>
							<path style="fill:#FFFFFF;" d="M280.635,416.424h-49.271v-7.699c0-9.224,7.478-16.702,16.702-16.702h15.867&#10;&#9;&#9;&#9;&#9;&#9;&#9;&#9;&#9;c9.224,0,16.702,7.478,16.702,16.702V416.424z"/>
							
								<path style="fill:none;stroke:#2626BC;stroke-width:10;stroke-linecap:round;stroke-linejoin:round;stroke-miterlimit:10;" d="&#10;&#9;&#9;&#9;&#9;&#9;&#9;&#9;&#9;M280.635,416.424h-49.271v-7.699c0-9.224,7.478-16.702,16.702-16.702h15.867c9.224,0,16.702,7.478,16.702,16.702V416.424z"/>
						</g>
						<g>
							<path style="fill:#FFFFFF;" d="M235.365,307.579h41.271c2.209,0,4,1.791,4,4v3.699c0,9.224-7.478,16.702-16.702,16.702&#10;&#9;&#9;&#9;&#9;&#9;&#9;&#9;&#9;h-15.867c-9.224,0-16.702-7.478-16.702-16.702v-3.699C231.365,309.37,233.155,307.579,235.365,307.579z"/>
							
								<path style="fill:none;stroke:#2626BC;stroke-width:10;stroke-linecap:round;stroke-linejoin:round;stroke-miterlimit:10;" d="&#10;&#9;&#9;&#9;&#9;&#9;&#9;&#9;&#9;M235.365,307.579h41.271c2.209,0,4,1.791,4,4v3.699c0,9.224-7.478,16.702-16.702,16.702h-15.867&#10;&#9;&#9;&#9;&#9;&#9;&#9;&#9;&#9;c-9.224,0-16.702-7.478-16.702-16.702v-3.699C231.365,309.37,233.155,307.579,235.365,307.579z"/>
						</g>
						<g>
							<path style="fill:#6582FD;" d="M296.985,427.944l-2.156-8.621c-1.113-4.451-5.113-7.574-9.701-7.574h-58.255&#10;&#9;&#9;&#9;&#9;&#9;&#9;&#9;&#9;c-4.588,0-8.588,3.122-9.701,7.574l-2.156,8.621c-0.789,3.156,1.597,6.213,4.851,6.213h72.269&#10;&#9;&#9;&#9;&#9;&#9;&#9;&#9;&#9;C295.388,434.157,297.774,431.099,296.985,427.944z"/>
						</g>
						<g>
							
								<path style="fill:none;stroke:#2626BC;stroke-width:10;stroke-linecap:round;stroke-linejoin:round;stroke-miterlimit:10;" d="&#10;&#9;&#9;&#9;&#9;&#9;&#9;&#9;&#9;M296.985,427.944l-2.156-8.621c-1.113-4.451-5.113-7.574-9.701-7.574h-58.255c-4.588,0-8.588,3.122-9.701,7.574l-2.156,8.621&#10;&#9;&#9;&#9;&#9;&#9;&#9;&#9;&#9;c-0.789,3.156,1.597,6.213,4.851,6.213h72.269C295.388,434.157,297.774,431.099,296.985,427.944z"/>
						</g>
					</g>
				</g>
				<g>
					<g>
						<circle style="fill:#6582FD;" cx="70.956" cy="284.558" r="28.99"/>
						<circle style="fill:#FFFFFF;" cx="65.6" cy="279.202" r="9.648"/>
						
							<circle style="fill:none;stroke:#2626BC;stroke-width:10;stroke-linecap:round;stroke-linejoin:round;stroke-miterlimit:10;" cx="70.956" cy="284.558" r="28.99"/>
						<g>
							<rect x="57.953" y="324.608" style="fill:#8298FD;" width="26.007" height="103.288"/>
							<rect x="57.953" y="324.608" style="fill:#6582FD;" width="26.007" height="103.288"/>
							
								<rect x="57.953" y="324.608" style="fill:none;stroke:#2626BC;stroke-width:10;stroke-linecap:round;stroke-linejoin:round;stroke-miterlimit:10;" width="26.007" height="103.288"/>
							<g>
								<path style="fill:#FFFFFF;" d="M95.591,416.424H46.321v-7.699c0-9.224,7.478-16.702,16.702-16.702H78.89&#10;&#9;&#9;&#9;&#9;&#9;&#9;&#9;&#9;&#9;c9.224,0,16.702,7.478,16.702,16.702V416.424z"/>
								
									<path style="fill:none;stroke:#2626BC;stroke-width:10;stroke-linecap:round;stroke-linejoin:round;stroke-miterlimit:10;" d="&#10;&#9;&#9;&#9;&#9;&#9;&#9;&#9;&#9;&#9;M95.591,416.424H46.321v-7.699c0-9.224,7.478-16.702,16.702-16.702H78.89c9.224,0,16.702,7.478,16.702,16.702V416.424z"/>
							</g>
							<g>
								<path style="fill:#FFFFFF;" d="M50.321,307.579h41.271c2.209,0,4,1.791,4,4v3.699c0,9.224-7.478,16.702-16.702,16.702&#10;&#9;&#9;&#9;&#9;&#9;&#9;&#9;&#9;&#9;H63.022c-9.224,0-16.702-7.478-16.702-16.702v-3.699C46.321,309.37,48.111,307.579,50.321,307.579z"/>
								
									<path style="fill:none;stroke:#2626BC;stroke-width:10;stroke-linecap:round;stroke-linejoin:round;stroke-miterlimit:10;" d="&#10;&#9;&#9;&#9;&#9;&#9;&#9;&#9;&#9;&#9;M50.321,307.579h41.271c2.209,0,4,1.791,4,4v3.699c0,9.224-7.478,16.702-16.702,16.702H63.022&#10;&#9;&#9;&#9;&#9;&#9;&#9;&#9;&#9;&#9;c-9.224,0-16.702-7.478-16.702-16.702v-3.699C46.321,309.37,48.111,307.579,50.321,307.579z"/>
							</g>
							<g>
								<path style="fill:#6582FD;" d="M111.941,427.944l-2.156-8.621c-1.113-4.451-5.113-7.574-9.701-7.574H41.828&#10;&#9;&#9;&#9;&#9;&#9;&#9;&#9;&#9;&#9;c-4.588,0-8.588,3.122-9.701,7.574l-2.156,8.621c-0.789,3.156,1.597,6.213,4.851,6.213h72.269&#10;&#9;&#9;&#9;&#9;&#9;&#9;&#9;&#9;&#9;C110.344,434.157,112.73,431.099,111.941,427.944z"/>
							</g>
							<g>
								
									<path style="fill:none;stroke:#2626BC;stroke-width:10;stroke-linecap:round;stroke-linejoin:round;stroke-miterlimit:10;" d="&#10;&#9;&#9;&#9;&#9;&#9;&#9;&#9;&#9;&#9;M111.941,427.944l-2.156-8.621c-1.113-4.451-5.113-7.574-9.701-7.574H41.828c-4.588,0-8.588,3.122-9.701,7.574l-2.156,8.621&#10;&#9;&#9;&#9;&#9;&#9;&#9;&#9;&#9;&#9;c-0.789,3.156,1.597,6.213,4.851,6.213h72.269C110.344,434.157,112.73,431.099,111.941,427.944z"/>
							</g>
						</g>
					</g>
					<g>
						<circle style="fill:#6582FD;" cx="441.044" cy="284.558" r="28.99"/>
						<circle style="fill:#FFFFFF;" cx="435.689" cy="279.202" r="9.648"/>
						
							<circle style="fill:none;stroke:#2626BC;stroke-width:10;stroke-linecap:round;stroke-linejoin:round;stroke-miterlimit:10;" cx="441.044" cy="284.558" r="28.99"/>
						<g>
							<rect x="428.041" y="324.608" style="fill:#8298FD;" width="26.007" height="103.288"/>
							<rect x="428.041" y="324.608" style="fill:#6582FD;" width="26.007" height="103.288"/>
							
								<rect x="428.041" y="324.608" style="fill:none;stroke:#2626BC;stroke-width:10;stroke-linecap:round;stroke-linejoin:round;stroke-miterlimit:10;" width="26.007" height="103.288"/>
							<g>
								<path style="fill:#FFFFFF;" d="M465.679,416.424h-49.271v-7.699c0-9.224,7.478-16.702,16.702-16.702h15.867&#10;&#9;&#9;&#9;&#9;&#9;&#9;&#9;&#9;&#9;c9.224,0,16.702,7.478,16.702,16.702V416.424z"/>
								
									<path style="fill:none;stroke:#2626BC;stroke-width:10;stroke-linecap:round;stroke-linejoin:round;stroke-miterlimit:10;" d="&#10;&#9;&#9;&#9;&#9;&#9;&#9;&#9;&#9;&#9;M465.679,416.424h-49.271v-7.699c0-9.224,7.478-16.702,16.702-16.702h15.867c9.224,0,16.702,7.478,16.702,16.702V416.424z"/>
							</g>
							<g>
								<path style="fill:#FFFFFF;" d="M420.409,307.579h41.271c2.209,0,4,1.791,4,4v3.699c0,9.224-7.478,16.702-16.702,16.702&#10;&#9;&#9;&#9;&#9;&#9;&#9;&#9;&#9;&#9;H433.11c-9.224,0-16.702-7.478-16.702-16.702v-3.699C416.409,309.37,418.199,307.579,420.409,307.579z"/>
								
									<path style="fill:none;stroke:#2626BC;stroke-width:10;stroke-linecap:round;stroke-linejoin:round;stroke-miterlimit:10;" d="&#10;&#9;&#9;&#9;&#9;&#9;&#9;&#9;&#9;&#9;M420.409,307.579h41.271c2.209,0,4,1.791,4,4v3.699c0,9.224-7.478,16.702-16.702,16.702H433.11&#10;&#9;&#9;&#9;&#9;&#9;&#9;&#9;&#9;&#9;c-9.224,0-16.702-7.478-16.702-16.702v-3.699C416.409,309.37,418.199,307.579,420.409,307.579z"/>
							</g>
							<g>
								<path style="fill:#6582FD;" d="M482.029,427.944l-2.156-8.621c-1.113-4.451-5.113-7.574-9.701-7.574h-58.255&#10;&#9;&#9;&#9;&#9;&#9;&#9;&#9;&#9;&#9;c-4.588,0-8.588,3.122-9.701,7.574l-2.156,8.621c-0.789,3.156,1.598,6.213,4.851,6.213h72.269&#10;&#9;&#9;&#9;&#9;&#9;&#9;&#9;&#9;&#9;C480.432,434.157,482.818,431.099,482.029,427.944z"/>
							</g>
							<g>
								
									<path style="fill:none;stroke:#2626BC;stroke-width:10;stroke-linecap:round;stroke-linejoin:round;stroke-miterlimit:10;" d="&#10;&#9;&#9;&#9;&#9;&#9;&#9;&#9;&#9;&#9;M482.029,427.944l-2.156-8.621c-1.113-4.451-5.113-7.574-9.701-7.574h-58.255c-4.588,0-8.588,3.122-9.701,7.574&#10;&#9;&#9;&#9;&#9;&#9;&#9;&#9;&#9;&#9;l-2.156,8.621c-0.789,3.156,1.598,6.213,4.851,6.213h72.269C480.432,434.157,482.818,431.099,482.029,427.944z"/>
							</g>
						</g>
					</g>
				</g>
				<g>
					<path style="fill:none;stroke:#2626BC;stroke-width:10;stroke-linecap:round;stroke-linejoin:round;stroke-miterlimit:10;" d="&#10;&#9;&#9;&#9;&#9;&#9;&#9;M99.946,284.558c35.088,33.212,91.977,33.212,127.065,0"/>
					<path style="fill:none;stroke:#2626BC;stroke-width:10;stroke-linecap:round;stroke-linejoin:round;stroke-miterlimit:10;" d="&#10;&#9;&#9;&#9;&#9;&#9;&#9;M284.99,284.558c35.088,33.212,91.977,33.212,127.065,0"/>
				</g>
				<g>
					<path style="fill:#FFFFFF;" d="M192.063,293.423c-18.363,6.704-38.808,6.704-57.171,0c-2.011-0.734-4.243,0.224-5.071,2.198&#10;&#9;&#9;&#9;&#9;&#9;&#9;l-5.418,12.923c-0.877,2.093,0.156,4.507,2.282,5.3c11.801,4.397,24.297,6.596,36.793,6.596s24.992-2.199,36.793-6.596&#10;&#9;&#9;&#9;&#9;&#9;&#9;c2.126-0.792,3.159-3.207,2.282-5.3l-5.418-12.923C196.306,293.647,194.075,292.689,192.063,293.423z"/>
					<path style="fill:#FFFFFF;" d="M377.107,293.423c-18.363,6.704-38.808,6.704-57.171,0c-2.011-0.734-4.243,0.224-5.071,2.198&#10;&#9;&#9;&#9;&#9;&#9;&#9;l-5.418,12.923c-0.877,2.093,0.156,4.507,2.282,5.3c11.801,4.397,24.297,6.596,36.793,6.596s24.992-2.199,36.793-6.596&#10;&#9;&#9;&#9;&#9;&#9;&#9;c2.126-0.792,3.159-3.207,2.282-5.3l-5.418-12.923C381.35,293.647,379.119,292.689,377.107,293.423z"/>
				</g>
				<g>
					<path style="fill:none;stroke:#2626BC;stroke-width:10;stroke-linecap:round;stroke-linejoin:round;stroke-miterlimit:10;" d="&#10;&#9;&#9;&#9;&#9;&#9;&#9;M192.063,293.423c-18.363,6.704-38.808,6.704-57.171,0c-2.011-0.734-4.243,0.224-5.071,2.198l-5.418,12.923&#10;&#9;&#9;&#9;&#9;&#9;&#9;c-0.877,2.093,0.156,4.507,2.282,5.3c11.801,4.397,24.297,6.596,36.793,6.596s24.992-2.199,36.793-6.596&#10;&#9;&#9;&#9;&#9;&#9;&#9;c2.126-0.792,3.159-3.207,2.282-5.3l-5.418-12.923C196.306,293.647,194.075,292.689,192.063,293.423z"/>
					<path style="fill:none;stroke:#2626BC;stroke-width:10;stroke-linecap:round;stroke-linejoin:round;stroke-miterlimit:10;" d="&#10;&#9;&#9;&#9;&#9;&#9;&#9;M377.107,293.423c-18.363,6.704-38.808,6.704-57.171,0c-2.011-0.734-4.243,0.224-5.071,2.198l-5.418,12.923&#10;&#9;&#9;&#9;&#9;&#9;&#9;c-0.877,2.093,0.156,4.507,2.282,5.3c11.801,4.397,24.297,6.596,36.793,6.596s24.992-2.199,36.793-6.596&#10;&#9;&#9;&#9;&#9;&#9;&#9;c2.126-0.792,3.159-3.207,2.282-5.3l-5.418-12.923C381.35,293.647,379.119,292.689,377.107,293.423z"/>
				</g>
			</g>
		</g>
		
			<rect x="318.935" y="462.572" transform="matrix(0.7071 0.7071 -0.7071 0.7071 427.9263 -93.1124)" style="fill:none;stroke:#6582FD;stroke-width:10;stroke-linecap:round;stroke-linejoin:round;stroke-miterlimit:10;" width="14.849" height="14.849"/>
		
			<rect x="99.167" y="26.579" transform="matrix(0.7071 0.7071 -0.7071 0.7071 55.264 -65.4121)" style="fill:none;stroke:#6582FD;stroke-width:10;stroke-linecap:round;stroke-linejoin:round;stroke-miterlimit:10;" width="14.849" height="14.849"/>
		
			<rect x="408.984" y="133.548" transform="matrix(0.7071 0.7071 -0.7071 0.7071 221.6461 -253.1554)" style="fill:none;stroke:#6582FD;stroke-width:10;stroke-linecap:round;stroke-linejoin:round;stroke-miterlimit:10;" width="14.849" height="14.849"/>
		
			<polygon style="fill:none;stroke:#6582FD;stroke-width:10;stroke-linecap:round;stroke-linejoin:round;stroke-miterlimit:10;" points="&#10;&#9;&#9;&#9;435.689,192.994 438.285,200.986 446.689,200.986 439.89,205.925 442.487,213.917 435.689,208.978 428.89,213.917 &#10;&#9;&#9;&#9;431.487,205.925 424.689,200.986 433.092,200.986 &#9;&#9;"/>
		
			<polygon style="fill:none;stroke:#6582FD;stroke-width:10;stroke-linecap:round;stroke-linejoin:round;stroke-miterlimit:10;" points="&#10;&#9;&#9;&#9;95.591,200.507 98.188,208.499 106.591,208.499 99.793,213.439 102.39,221.431 95.591,216.491 88.793,221.431 91.39,213.439 &#10;&#9;&#9;&#9;84.591,208.499 92.995,208.499 &#9;&#9;"/>
	</g>
</g>















</svg>
